<?xml version="1.0" encoding="UTF-8"?><svg xmlns="http://www.w3.org/2000/svg" width="2000" height="2000" style="background-color: black;">
   <g transform="translate(300, 1900), scale(.75)">
      <text x="0" y="15" font-size="20" font-family="papyrus" stroke="white">0</text>
      <text x="80" y="15" font-size="20" font-family="papyrus" stroke="white">10</text>
      <line x1="89" x2="89" y1="0" y2="-10" stroke-width="3" stroke="white"></line>
      <text x="160" y="15" font-size="20" font-family="papyrus" stroke="white">20</text>
      <line x1="169" x2="169" y1="0" y2="-10" stroke-width="3" stroke="white"></line>
      <text x="240" y="15" font-size="20" font-family="papyrus" stroke="white">30</text>
      <line x1="249" x2="249" y1="0" y2="-10" stroke-width="3" stroke="white"></line>
      <text x="320" y="15" font-size="20" font-family="papyrus" stroke="white">40</text>
      <line x1="329" x2="329" y1="0" y2="-10" stroke-width="3" stroke="white"></line>
      <text x="400" y="15" font-size="20" font-family="papyrus" stroke="white">50</text>
      <line x1="409" x2="409" y1="0" y2="-10" stroke-width="3" stroke="white"></line>
      <text x="480" y="15" font-size="20" font-family="papyrus" stroke="white">60</text>
      <line x1="489" x2="489" y1="0" y2="-10" stroke-width="3" stroke="white"></line>
      <text x="560" y="15" font-size="20" font-family="papyrus" stroke="white">70</text>
      <line x1="569" x2="569" y1="0" y2="-10" stroke-width="3" stroke="white"></line>
      <text x="640" y="15" font-size="20" font-family="papyrus" stroke="white">80</text>
      <line x1="649" x2="649" y1="0" y2="-10" stroke-width="3" stroke="white"></line>
      <text x="720" y="15" font-size="20" font-family="papyrus" stroke="white">90</text>
      <line x1="729" x2="729" y1="0" y2="-10" stroke-width="3" stroke="white"></line>
      <text x="800" y="15" font-size="20" font-family="papyrus" stroke="white">100</text>
      <line x1="809" x2="809" y1="0" y2="-10" stroke-width="3" stroke="white"></line>
      <text x="5" y="-1645" font-size="20" font-family="papyrus" stroke="white">0</text>
      <text x="80" y="-1635" font-size="20" font-family="papyrus" stroke="white">10</text>
      <line x1="89" x2="89" y1="-1665" y2="-1655" stroke-width="3" stroke="white"></line>
      <text x="160" y="-1635" font-size="20" font-family="papyrus" stroke="white">20</text>
      <line x1="169" x2="169" y1="-1665" y2="-1655" stroke-width="3" stroke="white"></line>
      <text x="240" y="-1635" font-size="20" font-family="papyrus" stroke="white">30</text>
      <line x1="249" x2="249" y1="-1665" y2="-1655" stroke-width="3" stroke="white"></line>
      <text x="320" y="-1635" font-size="20" font-family="papyrus" stroke="white">40</text>
      <line x1="329" x2="329" y1="-1665" y2="-1655" stroke-width="3" stroke="white"></line>
      <text x="400" y="-1635" font-size="20" font-family="papyrus" stroke="white">50</text>
      <line x1="409" x2="409" y1="-1665" y2="-1655" stroke-width="3" stroke="white"></line>
      <text x="480" y="-1635" font-size="20" font-family="papyrus" stroke="white">60</text>
      <line x1="489" x2="489" y1="-1665" y2="-1655" stroke-width="3" stroke="white"></line>
      <text x="560" y="-1635" font-size="20" font-family="papyrus" stroke="white">70</text>
      <line x1="569" x2="569" y1="-1665" y2="-1655" stroke-width="3" stroke="white"></line>
      <text x="640" y="-1635" font-size="20" font-family="papyrus" stroke="white">80</text>
      <line x1="649" x2="649" y1="-1665" y2="-1655" stroke-width="3" stroke="white"></line>
      <text x="720" y="-1635" font-size="20" font-family="papyrus" stroke="white">90</text>
      <line x1="729" x2="729" y1="-1665" y2="-1655" stroke-width="3" stroke="white"></line>
      <text x="800" y="-1635" font-size="20" font-family="papyrus" stroke="white">100</text>
      <line x1="809" x2="809" y1="-1665" y2="-1655" stroke-width="3" stroke="white"></line>
      <text x="200" y="-2425" stroke="white" font-size="30" font-family="papyrus">Available Dialogue Per Setting</text>
      <text x="345" y="-2395" stroke="white" font-size="25" font-family="papyrus">hotland</text>
      <g>
         <text x="-20" y="-20" fill="blueviolet" text-anchor="end" font-size="20" font-family="comic sans Ms" stroke="blueviolet">waterRoom</text>
         <line x1="0" x2="208" y1="-22.5" y2="-22.5" stroke="chocolate" stroke-width="10"></line>
      </g>
      <line x1="0" y1="0" x2="0" y2="-20" stroke-width="3" stroke="blue"></line>
      <line x1="0" y1="0" x2="880" y2="0" stroke-width="3" stroke="red"></line>
      <line x1="0" y1="-2385" x2="880" y2="-2385" stroke-width="3" stroke="red"></line>
      <g>
         <text x="-20" y="-65" fill="blueviolet" text-anchor="end" font-size="20" font-family="comic sans Ms" stroke="blueviolet">SavePointRoom</text>
         <line x1="0" x2="128" y1="-67.5" y2="-67.5" stroke="chocolate" stroke-width="10"></line>
      </g>
      <line x1="0" y1="0" x2="0" y2="-65" stroke-width="3" stroke="blue"></line>
      <line x1="0" y1="0" x2="880" y2="0" stroke-width="3" stroke="red"></line>
      <line x1="0" y1="-2385" x2="880" y2="-2385" stroke-width="3" stroke="red"></line>
      <g>
         <text x="-20" y="-110" fill="blueviolet" text-anchor="end" font-size="20" font-family="comic sans Ms" stroke="blueviolet">RiverPersonRoom</text>
         <line x1="0" x2="104" y1="-112.5" y2="-112.5" stroke="chocolate" stroke-width="10"></line>
      </g>
      <line x1="0" y1="0" x2="0" y2="-110" stroke-width="3" stroke="blue"></line>
      <line x1="0" y1="0" x2="880" y2="0" stroke-width="3" stroke="red"></line>
      <line x1="0" y1="-2385" x2="880" y2="-2385" stroke-width="3" stroke="red"></line>
      <g>
         <text x="-20" y="-155" fill="blueviolet" text-anchor="end" font-size="20" font-family="comic sans Ms" stroke="blueviolet">AlphysLab(Dark)</text>
         <line x1="0" x2="16" y1="-157.5" y2="-157.5" stroke="chocolate" stroke-width="10"></line>
      </g>
      <line x1="0" y1="0" x2="0" y2="-155" stroke-width="3" stroke="blue"></line>
      <line x1="0" y1="0" x2="880" y2="0" stroke-width="3" stroke="red"></line>
      <line x1="0" y1="-2385" x2="880" y2="-2385" stroke-width="3" stroke="red"></line>
      <g>
         <text x="-20" y="-200" fill="blueviolet" text-anchor="end" font-size="20" font-family="comic sans Ms" stroke="blueviolet">MeetingAlphys</text>
         <line x1="0" x2="288" y1="-202.5" y2="-202.5" stroke="chocolate" stroke-width="10"></line>
      </g>
      <line x1="0" y1="0" x2="0" y2="-200" stroke-width="3" stroke="blue"></line>
      <line x1="0" y1="0" x2="880" y2="0" stroke-width="3" stroke="red"></line>
      <line x1="0" y1="-2385" x2="880" y2="-2385" stroke-width="3" stroke="red"></line>
      <g>
         <text x="-20" y="-245" fill="blueviolet" text-anchor="end" font-size="20" font-family="comic sans Ms" stroke="blueviolet">MeetingMettaton</text>
         <line x1="0" x2="80" y1="-247.5" y2="-247.5" stroke="chocolate" stroke-width="10"></line>
      </g>
      <line x1="0" y1="0" x2="0" y2="-245" stroke-width="3" stroke="blue"></line>
      <line x1="0" y1="0" x2="880" y2="0" stroke-width="3" stroke="red"></line>
      <line x1="0" y1="-2385" x2="880" y2="-2385" stroke-width="3" stroke="red"></line>
      <g>
         <text x="-20" y="-290" fill="blueviolet" text-anchor="end" font-size="20" font-family="comic sans Ms" stroke="blueviolet">alphys'sLabPostMettaton</text>
         <line x1="0" x2="328" y1="-292.5" y2="-292.5" stroke="chocolate" stroke-width="10"></line>
      </g>
      <line x1="0" y1="0" x2="0" y2="-290" stroke-width="3" stroke="blue"></line>
      <line x1="0" y1="0" x2="880" y2="0" stroke-width="3" stroke="red"></line>
      <line x1="0" y1="-2385" x2="880" y2="-2385" stroke-width="3" stroke="red"></line>
      <g>
         <text x="-20" y="-335" fill="blueviolet" text-anchor="end" font-size="20" font-family="comic sans Ms" stroke="blueviolet">AlphysBedroom</text>
         <line x1="0" x2="256" y1="-337.5" y2="-337.5" stroke="chocolate" stroke-width="10"></line>
      </g>
      <line x1="0" y1="0" x2="0" y2="-335" stroke-width="3" stroke="blue"></line>
      <line x1="0" y1="0" x2="880" y2="0" stroke-width="3" stroke="red"></line>
      <line x1="0" y1="-2385" x2="880" y2="-2385" stroke-width="3" stroke="red"></line>
      <g>
         <text x="-20" y="-380" fill="blueviolet" text-anchor="end" font-size="20" font-family="comic sans Ms" stroke="blueviolet">HallwayOutsideOfLab</text>
         <line x1="0" x2="24" y1="-382.5" y2="-382.5" stroke="chocolate" stroke-width="10"></line>
      </g>
      <line x1="0" y1="0" x2="0" y2="-380" stroke-width="3" stroke="blue"></line>
      <line x1="0" y1="0" x2="880" y2="0" stroke-width="3" stroke="red"></line>
      <line x1="0" y1="-2385" x2="880" y2="-2385" stroke-width="3" stroke="red"></line>
      <g>
         <text x="-20" y="-425" fill="blueviolet" text-anchor="end" font-size="20" font-family="comic sans Ms" stroke="blueviolet">SplitBeamsHall</text>
         <line x1="0" x2="8" y1="-427.5" y2="-427.5" stroke="chocolate" stroke-width="10"></line>
      </g>
      <line x1="0" y1="0" x2="0" y2="-425" stroke-width="3" stroke="blue"></line>
      <line x1="0" y1="0" x2="880" y2="0" stroke-width="3" stroke="red"></line>
      <line x1="0" y1="-2385" x2="880" y2="-2385" stroke-width="3" stroke="red"></line>
      <g>
         <text x="-20" y="-470" fill="blueviolet" text-anchor="end" font-size="20" font-family="comic sans Ms" stroke="blueviolet">SteamVentRoom</text>
         <line x1="0" x2="56" y1="-472.5" y2="-472.5" stroke="chocolate" stroke-width="10"></line>
      </g>
      <line x1="0" y1="0" x2="0" y2="-470" stroke-width="3" stroke="blue"></line>
      <line x1="0" y1="0" x2="880" y2="0" stroke-width="3" stroke="red"></line>
      <line x1="0" y1="-2385" x2="880" y2="-2385" stroke-width="3" stroke="red"></line>
      <g>
         <text x="-20" y="-515" fill="blueviolet" text-anchor="end" font-size="20" font-family="comic sans Ms" stroke="blueviolet">FrypanRoom</text>
         <line x1="0" x2="24" y1="-517.5" y2="-517.5" stroke="chocolate" stroke-width="10"></line>
      </g>
      <line x1="0" y1="0" x2="0" y2="-515" stroke-width="3" stroke="blue"></line>
      <line x1="0" y1="0" x2="880" y2="0" stroke-width="3" stroke="red"></line>
      <line x1="0" y1="-2385" x2="880" y2="-2385" stroke-width="3" stroke="red"></line>
      <g>
         <text x="-20" y="-560" fill="blueviolet" text-anchor="end" font-size="20" font-family="comic sans Ms" stroke="blueviolet">LaserPuzzle</text>
         <line x1="0" x2="128" y1="-562.5" y2="-562.5" stroke="chocolate" stroke-width="10"></line>
      </g>
      <line x1="0" y1="0" x2="0" y2="-560" stroke-width="3" stroke="blue"></line>
      <line x1="0" y1="0" x2="880" y2="0" stroke-width="3" stroke="red"></line>
      <line x1="0" y1="-2385" x2="880" y2="-2385" stroke-width="3" stroke="red"></line>
      <g>
         <text x="-20" y="-605" fill="blueviolet" text-anchor="end" font-size="20" font-family="comic sans Ms" stroke="blueviolet">ShootingPuzzleBeginning</text>
         <line x1="0" x2="96" y1="-607.5" y2="-607.5" stroke="chocolate" stroke-width="10"></line>
      </g>
      <line x1="0" y1="0" x2="0" y2="-605" stroke-width="3" stroke="blue"></line>
      <line x1="0" y1="0" x2="880" y2="0" stroke-width="3" stroke="red"></line>
      <line x1="0" y1="-2385" x2="880" y2="-2385" stroke-width="3" stroke="red"></line>
      <g>
         <text x="-20" y="-650" fill="blueviolet" text-anchor="end" font-size="20" font-family="comic sans Ms" stroke="blueviolet">WorkingMonsters</text>
         <line x1="0" x2="56" y1="-652.5" y2="-652.5" stroke="chocolate" stroke-width="10"></line>
      </g>
      <line x1="0" y1="0" x2="0" y2="-650" stroke-width="3" stroke="blue"></line>
      <line x1="0" y1="0" x2="880" y2="0" stroke-width="3" stroke="red"></line>
      <line x1="0" y1="-2385" x2="880" y2="-2385" stroke-width="3" stroke="red"></line>
      <g>
         <text x="-20" y="-695" fill="blueviolet" text-anchor="end" font-size="20" font-family="comic sans Ms" stroke="blueviolet">ShootingPuzzle1</text>
         <line x1="0" x2="56" y1="-697.5" y2="-697.5" stroke="chocolate" stroke-width="10"></line>
      </g>
      <line x1="0" y1="0" x2="0" y2="-695" stroke-width="3" stroke="blue"></line>
      <line x1="0" y1="0" x2="880" y2="0" stroke-width="3" stroke="red"></line>
      <line x1="0" y1="-2385" x2="880" y2="-2385" stroke-width="3" stroke="red"></line>
      <g>
         <text x="-20" y="-740" fill="blueviolet" text-anchor="end" font-size="20" font-family="comic sans Ms" stroke="blueviolet">SchoolKids</text>
         <line x1="0" x2="144" y1="-742.5" y2="-742.5" stroke="chocolate" stroke-width="10"></line>
      </g>
      <line x1="0" y1="0" x2="0" y2="-740" stroke-width="3" stroke="blue"></line>
      <line x1="0" y1="0" x2="880" y2="0" stroke-width="3" stroke="red"></line>
      <line x1="0" y1="-2385" x2="880" y2="-2385" stroke-width="3" stroke="red"></line>
      <g>
         <text x="-20" y="-785" fill="blueviolet" text-anchor="end" font-size="20" font-family="comic sans Ms" stroke="blueviolet">ShootingPuzzle2</text>
         <line x1="0" x2="24" y1="-787.5" y2="-787.5" stroke="chocolate" stroke-width="10"></line>
      </g>
      <line x1="0" y1="0" x2="0" y2="-785" stroke-width="3" stroke="blue"></line>
      <line x1="0" y1="0" x2="880" y2="0" stroke-width="3" stroke="red"></line>
      <line x1="0" y1="-2385" x2="880" y2="-2385" stroke-width="3" stroke="red"></line>
      <g>
         <text x="-20" y="-830" fill="blueviolet" text-anchor="end" font-size="20" font-family="comic sans Ms" stroke="blueviolet">VentsBeforeMettaton</text>
         <line x1="0" x2="64" y1="-832.5" y2="-832.5" stroke="chocolate" stroke-width="10"></line>
      </g>
      <line x1="0" y1="0" x2="0" y2="-830" stroke-width="3" stroke="blue"></line>
      <line x1="0" y1="0" x2="880" y2="0" stroke-width="3" stroke="red"></line>
      <line x1="0" y1="-2385" x2="880" y2="-2385" stroke-width="3" stroke="red"></line>
      <g>
         <text x="-20" y="-875" fill="blueviolet" text-anchor="end" font-size="20" font-family="comic sans Ms" stroke="blueviolet">CookingWithAKillerRobot</text>
         <line x1="0" x2="960" y1="-877.5" y2="-877.5" stroke="chocolate" stroke-width="10"></line>
      </g>
      <line x1="0" y1="0" x2="0" y2="-875" stroke-width="3" stroke="blue"></line>
      <line x1="0" y1="0" x2="880" y2="0" stroke-width="3" stroke="red"></line>
      <line x1="0" y1="-2385" x2="880" y2="-2385" stroke-width="3" stroke="red"></line>
      <g>
         <text x="-20" y="-920" fill="blueviolet" text-anchor="end" font-size="20" font-family="comic sans Ms" stroke="blueviolet">FirstCoreView</text>
         <line x1="0" x2="80" y1="-922.5" y2="-922.5" stroke="chocolate" stroke-width="10"></line>
      </g>
      <line x1="0" y1="0" x2="0" y2="-920" stroke-width="3" stroke="blue"></line>
      <line x1="0" y1="0" x2="880" y2="0" stroke-width="3" stroke="red"></line>
      <line x1="0" y1="-2385" x2="880" y2="-2385" stroke-width="3" stroke="red"></line>
      <g>
         <text x="-20" y="-965" fill="blueviolet" text-anchor="end" font-size="20" font-family="comic sans Ms" stroke="blueviolet">ElevatorR1</text>
         <line x1="0" x2="16" y1="-967.5" y2="-967.5" stroke="chocolate" stroke-width="10"></line>
      </g>
      <line x1="0" y1="0" x2="0" y2="-965" stroke-width="3" stroke="blue"></line>
      <line x1="0" y1="0" x2="880" y2="0" stroke-width="3" stroke="red"></line>
      <line x1="0" y1="-2385" x2="880" y2="-2385" stroke-width="3" stroke="red"></line>
      <g>
         <text x="-20" y="-1010" fill="blueviolet" text-anchor="end" font-size="20" font-family="comic sans Ms" stroke="blueviolet">ElevatorR2</text>
         <line x1="0" x2="16" y1="-1012.5" y2="-1012.5" stroke="chocolate" stroke-width="10"></line>
      </g>
      <line x1="0" y1="0" x2="0" y2="-1010" stroke-width="3" stroke="blue"></line>
      <line x1="0" y1="0" x2="880" y2="0" stroke-width="3" stroke="red"></line>
      <line x1="0" y1="-2385" x2="880" y2="-2385" stroke-width="3" stroke="red"></line>
      <g>
         <text x="-20" y="-1055" fill="blueviolet" text-anchor="end" font-size="20" font-family="comic sans Ms" stroke="blueviolet">SansHotdogStation</text>
         <line x1="0" x2="288" y1="-1057.5" y2="-1057.5" stroke="chocolate" stroke-width="10"></line>
      </g>
      <line x1="0" y1="0" x2="0" y2="-1055" stroke-width="3" stroke="blue"></line>
      <line x1="0" y1="0" x2="880" y2="0" stroke-width="3" stroke="red"></line>
      <line x1="0" y1="-2385" x2="880" y2="-2385" stroke-width="3" stroke="red"></line>
      <g>
         <text x="-20" y="-1100" fill="blueviolet" text-anchor="end" font-size="20" font-family="comic sans Ms" stroke="blueviolet">HotPicsHallway</text>
         <line x1="0" x2="64" y1="-1102.5" y2="-1102.5" stroke="chocolate" stroke-width="10"></line>
      </g>
      <line x1="0" y1="0" x2="0" y2="-1100" stroke-width="3" stroke="blue"></line>
      <line x1="0" y1="0" x2="880" y2="0" stroke-width="3" stroke="red"></line>
      <line x1="0" y1="-2385" x2="880" y2="-2385" stroke-width="3" stroke="red"></line>
      <g>
         <text x="-20" y="-1145" fill="blueviolet" text-anchor="end" font-size="20" font-family="comic sans Ms" stroke="blueviolet">soSorryRoom</text>
         <line x1="0" x2="40" y1="-1147.5" y2="-1147.5" stroke="chocolate" stroke-width="10"></line>
      </g>
      <line x1="0" y1="0" x2="0" y2="-1145" stroke-width="3" stroke="blue"></line>
      <line x1="0" y1="0" x2="880" y2="0" stroke-width="3" stroke="red"></line>
      <line x1="0" y1="-2385" x2="880" y2="-2385" stroke-width="3" stroke="red"></line>
      <g>
         <text x="-20" y="-1190" fill="blueviolet" text-anchor="end" font-size="20" font-family="comic sans Ms" stroke="blueviolet">ApronRoom</text>
         <line x1="0" x2="48" y1="-1192.5" y2="-1192.5" stroke="chocolate" stroke-width="10"></line>
      </g>
      <line x1="0" y1="0" x2="0" y2="-1190" stroke-width="3" stroke="blue"></line>
      <line x1="0" y1="0" x2="880" y2="0" stroke-width="3" stroke="red"></line>
      <line x1="0" y1="-2385" x2="880" y2="-2385" stroke-width="3" stroke="red"></line>
      <g>
         <text x="-20" y="-1235" fill="blueviolet" text-anchor="end" font-size="20" font-family="comic sans Ms" stroke="blueviolet">ConveyorPuzzle</text>
         <line x1="0" x2="112" y1="-1237.5" y2="-1237.5" stroke="chocolate" stroke-width="10"></line>
      </g>
      <line x1="0" y1="0" x2="0" y2="-1235" stroke-width="3" stroke="blue"></line>
      <line x1="0" y1="0" x2="880" y2="0" stroke-width="3" stroke="red"></line>
      <line x1="0" y1="-2385" x2="880" y2="-2385" stroke-width="3" stroke="red"></line>
      <g>
         <text x="-20" y="-1280" fill="blueviolet" text-anchor="end" font-size="20" font-family="comic sans Ms" stroke="blueviolet">SwitchVentPuzzle</text>
         <line x1="0" x2="48" y1="-1282.5" y2="-1282.5" stroke="chocolate" stroke-width="10"></line>
      </g>
      <line x1="0" y1="0" x2="0" y2="-1280" stroke-width="3" stroke="blue"></line>
      <line x1="0" y1="0" x2="880" y2="0" stroke-width="3" stroke="red"></line>
      <line x1="0" y1="-2385" x2="880" y2="-2385" stroke-width="3" stroke="red"></line>
      <g>
         <text x="-20" y="-1325" fill="blueviolet" text-anchor="end" font-size="20" font-family="comic sans Ms" stroke="blueviolet">CheeseRoom</text>
         <line x1="0" x2="72" y1="-1327.5" y2="-1327.5" stroke="chocolate" stroke-width="10"></line>
      </g>
      <line x1="0" y1="0" x2="0" y2="-1325" stroke-width="3" stroke="blue"></line>
      <line x1="0" y1="0" x2="880" y2="0" stroke-width="3" stroke="red"></line>
      <line x1="0" y1="-2385" x2="880" y2="-2385" stroke-width="3" stroke="red"></line>
      <g>
         <text x="-20" y="-1370" fill="blueviolet" text-anchor="end" font-size="20" font-family="comic sans Ms" stroke="blueviolet">RoyalGuards</text>
         <line x1="0" x2="112" y1="-1372.5" y2="-1372.5" stroke="chocolate" stroke-width="10"></line>
      </g>
      <line x1="0" y1="0" x2="0" y2="-1370" stroke-width="3" stroke="blue"></line>
      <line x1="0" y1="0" x2="880" y2="0" stroke-width="3" stroke="red"></line>
      <line x1="0" y1="-2385" x2="880" y2="-2385" stroke-width="3" stroke="red"></line>
      <g>
         <text x="-20" y="-1415" fill="blueviolet" text-anchor="end" font-size="20" font-family="comic sans Ms" stroke="blueviolet">2ndCoreView</text>
         <line x1="0" x2="88" y1="-1417.5" y2="-1417.5" stroke="chocolate" stroke-width="10"></line>
      </g>
      <line x1="0" y1="0" x2="0" y2="-1415" stroke-width="3" stroke="blue"></line>
      <line x1="0" y1="0" x2="880" y2="0" stroke-width="3" stroke="red"></line>
      <line x1="0" y1="-2385" x2="880" y2="-2385" stroke-width="3" stroke="red"></line>
      <g>
         <text x="-20" y="-1460" fill="blueviolet" text-anchor="end" font-size="20" font-family="comic sans Ms" stroke="blueviolet">MettatonNewsReport</text>
         <line x1="0" x2="0" y1="-1462.5" y2="-1462.5" stroke="chocolate" stroke-width="10"></line>
      </g>
      <line x1="0" y1="0" x2="0" y2="-1460" stroke-width="3" stroke="blue"></line>
      <line x1="0" y1="0" x2="880" y2="0" stroke-width="3" stroke="red"></line>
      <line x1="0" y1="-2385" x2="880" y2="-2385" stroke-width="3" stroke="red"></line>
      <g>
         <text x="-20" y="-1505" fill="blueviolet" text-anchor="end" font-size="20" font-family="comic sans Ms" stroke="blueviolet">SpiderBakeSale</text>
         <line x1="0" x2="144" y1="-1507.5" y2="-1507.5" stroke="chocolate" stroke-width="10"></line>
      </g>
      <line x1="0" y1="0" x2="0" y2="-1505" stroke-width="3" stroke="blue"></line>
      <line x1="0" y1="0" x2="880" y2="0" stroke-width="3" stroke="red"></line>
      <line x1="0" y1="-2385" x2="880" y2="-2385" stroke-width="3" stroke="red"></line>
      <g>
         <text x="-20" y="-1550" fill="blueviolet" text-anchor="end" font-size="20" font-family="comic sans Ms" stroke="blueviolet">FinalVentPuzzle</text>
         <line x1="0" x2="256" y1="-1552.5" y2="-1552.5" stroke="chocolate" stroke-width="10"></line>
      </g>
      <line x1="0" y1="0" x2="0" y2="-1550" stroke-width="3" stroke="blue"></line>
      <line x1="0" y1="0" x2="880" y2="0" stroke-width="3" stroke="red"></line>
      <line x1="0" y1="-2385" x2="880" y2="-2385" stroke-width="3" stroke="red"></line>
      <g>
         <text x="-20" y="-1595" fill="blueviolet" text-anchor="end" font-size="20" font-family="comic sans Ms" stroke="blueviolet">ShootingPuzzle3</text>
         <line x1="0" x2="16" y1="-1597.5" y2="-1597.5" stroke="chocolate" stroke-width="10"></line>
      </g>
      <line x1="0" y1="0" x2="0" y2="-1595" stroke-width="3" stroke="blue"></line>
      <line x1="0" y1="0" x2="880" y2="0" stroke-width="3" stroke="red"></line>
      <line x1="0" y1="-2385" x2="880" y2="-2385" stroke-width="3" stroke="red"></line>
      <g>
         <text x="-20" y="-1640" fill="blueviolet" text-anchor="end" font-size="20" font-family="comic sans Ms" stroke="blueviolet">LasersAndFlower</text>
         <line x1="0" x2="280" y1="-1642.5" y2="-1642.5" stroke="chocolate" stroke-width="10"></line>
      </g>
      <line x1="0" y1="0" x2="0" y2="-1640" stroke-width="3" stroke="blue"></line>
      <line x1="0" y1="0" x2="880" y2="0" stroke-width="3" stroke="red"></line>
      <line x1="0" y1="-2385" x2="880" y2="-2385" stroke-width="3" stroke="red"></line>
      <g>
         <text x="-20" y="-1685" fill="blueviolet" text-anchor="end" font-size="20" font-family="comic sans Ms" stroke="blueviolet">FinalShootingPuzzle</text>
         <line x1="0" x2="16" y1="-1687.5" y2="-1687.5" stroke="chocolate" stroke-width="10"></line>
      </g>
      <line x1="0" y1="0" x2="0" y2="-1685" stroke-width="3" stroke="blue"></line>
      <line x1="0" y1="0" x2="880" y2="0" stroke-width="3" stroke="red"></line>
      <line x1="0" y1="-2385" x2="880" y2="-2385" stroke-width="3" stroke="red"></line>
      <g>
         <text x="-20" y="-1730" fill="blueviolet" text-anchor="end" font-size="20" font-family="comic sans Ms" stroke="blueviolet">SpiderSavePoint</text>
         <line x1="0" x2="16" y1="-1732.5" y2="-1732.5" stroke="chocolate" stroke-width="10"></line>
      </g>
      <line x1="0" y1="0" x2="0" y2="-1730" stroke-width="3" stroke="blue"></line>
      <line x1="0" y1="0" x2="880" y2="0" stroke-width="3" stroke="red"></line>
      <line x1="0" y1="-2385" x2="880" y2="-2385" stroke-width="3" stroke="red"></line>
      <g>
         <text x="-20" y="-1775" fill="blueviolet" text-anchor="end" font-size="20" font-family="comic sans Ms" stroke="blueviolet">MuffetArena</text>
         <line x1="0" x2="104" y1="-1777.5" y2="-1777.5" stroke="chocolate" stroke-width="10"></line>
      </g>
      <line x1="0" y1="0" x2="0" y2="-1775" stroke-width="3" stroke="blue"></line>
      <line x1="0" y1="0" x2="880" y2="0" stroke-width="3" stroke="red"></line>
      <line x1="0" y1="-2385" x2="880" y2="-2385" stroke-width="3" stroke="red"></line>
      <g>
         <text x="-20" y="-1820" fill="blueviolet" text-anchor="end" font-size="20" font-family="comic sans Ms" stroke="blueviolet">MettatonPoster</text>
         <line x1="0" x2="40" y1="-1822.5" y2="-1822.5" stroke="chocolate" stroke-width="10"></line>
      </g>
      <line x1="0" y1="0" x2="0" y2="-1820" stroke-width="3" stroke="blue"></line>
      <line x1="0" y1="0" x2="880" y2="0" stroke-width="3" stroke="red"></line>
      <line x1="0" y1="-2385" x2="880" y2="-2385" stroke-width="3" stroke="red"></line>
      <g>
         <text x="-20" y="-1865" fill="blueviolet" text-anchor="end" font-size="20" font-family="comic sans Ms" stroke="blueviolet">MettatonOpera</text>
         <line x1="0" x2="288" y1="-1867.5" y2="-1867.5" stroke="chocolate" stroke-width="10"></line>
      </g>
      <line x1="0" y1="0" x2="0" y2="-1865" stroke-width="3" stroke="blue"></line>
      <line x1="0" y1="0" x2="880" y2="0" stroke-width="3" stroke="red"></line>
      <line x1="0" y1="-2385" x2="880" y2="-2385" stroke-width="3" stroke="red"></line>
      <g>
         <text x="-20" y="-1910" fill="blueviolet" text-anchor="end" font-size="20" font-family="comic sans Ms" stroke="blueviolet">TilePuzzle</text>
         <line x1="0" x2="312" y1="-1912.5" y2="-1912.5" stroke="chocolate" stroke-width="10"></line>
      </g>
      <line x1="0" y1="0" x2="0" y2="-1910" stroke-width="3" stroke="blue"></line>
      <line x1="0" y1="0" x2="880" y2="0" stroke-width="3" stroke="red"></line>
      <line x1="0" y1="-2385" x2="880" y2="-2385" stroke-width="3" stroke="red"></line>
      <g>
         <text x="-20" y="-1955" fill="blueviolet" text-anchor="end" font-size="20" font-family="comic sans Ms" stroke="blueviolet">ElevatorR3</text>
         <line x1="0" x2="80" y1="-1957.5" y2="-1957.5" stroke="chocolate" stroke-width="10"></line>
      </g>
      <line x1="0" y1="0" x2="0" y2="-1955" stroke-width="3" stroke="blue"></line>
      <line x1="0" y1="0" x2="880" y2="0" stroke-width="3" stroke="red"></line>
      <line x1="0" y1="-2385" x2="880" y2="-2385" stroke-width="3" stroke="red"></line>
      <g>
         <text x="-20" y="-2000" fill="blueviolet" text-anchor="end" font-size="20" font-family="comic sans Ms" stroke="blueviolet">NiceCreamGuy</text>
         <line x1="0" x2="152" y1="-2002.5" y2="-2002.5" stroke="chocolate" stroke-width="10"></line>
      </g>
      <line x1="0" y1="0" x2="0" y2="-2000" stroke-width="3" stroke="blue"></line>
      <line x1="0" y1="0" x2="880" y2="0" stroke-width="3" stroke="red"></line>
      <line x1="0" y1="-2385" x2="880" y2="-2385" stroke-width="3" stroke="red"></line>
      <g>
         <text x="-20" y="-2045" fill="blueviolet" text-anchor="end" font-size="20" font-family="comic sans Ms" stroke="blueviolet">ResortEntrance</text>
         <line x1="0" x2="80" y1="-2047.5" y2="-2047.5" stroke="chocolate" stroke-width="10"></line>
      </g>
      <line x1="0" y1="0" x2="0" y2="-2045" stroke-width="3" stroke="blue"></line>
      <line x1="0" y1="0" x2="880" y2="0" stroke-width="3" stroke="red"></line>
      <line x1="0" y1="-2385" x2="880" y2="-2385" stroke-width="3" stroke="red"></line>
      <g>
         <text x="-20" y="-2090" fill="blueviolet" text-anchor="end" font-size="20" font-family="comic sans Ms" stroke="blueviolet">CattyAndBrattysShop</text>
         <line x1="0" x2="424" y1="-2092.5" y2="-2092.5" stroke="chocolate" stroke-width="10"></line>
      </g>
      <line x1="0" y1="0" x2="0" y2="-2090" stroke-width="3" stroke="blue"></line>
      <line x1="0" y1="0" x2="880" y2="0" stroke-width="3" stroke="red"></line>
      <line x1="0" y1="-2385" x2="880" y2="-2385" stroke-width="3" stroke="red"></line>
      <g>
         <text x="-20" y="-2135" fill="blueviolet" text-anchor="end" font-size="20" font-family="comic sans Ms" stroke="blueviolet">HotelLobby</text>
         <line x1="0" x2="192" y1="-2137.5" y2="-2137.5" stroke="chocolate" stroke-width="10"></line>
      </g>
      <line x1="0" y1="0" x2="0" y2="-2135" stroke-width="3" stroke="blue"></line>
      <line x1="0" y1="0" x2="880" y2="0" stroke-width="3" stroke="red"></line>
      <line x1="0" y1="-2385" x2="880" y2="-2385" stroke-width="3" stroke="red"></line>
      <g>
         <text x="-20" y="-2180" fill="blueviolet" text-anchor="end" font-size="20" font-family="comic sans Ms" stroke="blueviolet">HotelBedroom</text>
         <line x1="0" x2="0" y1="-2182.5" y2="-2182.5" stroke="chocolate" stroke-width="10"></line>
      </g>
      <line x1="0" y1="0" x2="0" y2="-2180" stroke-width="3" stroke="blue"></line>
      <line x1="0" y1="0" x2="880" y2="0" stroke-width="3" stroke="red"></line>
      <line x1="0" y1="-2385" x2="880" y2="-2385" stroke-width="3" stroke="red"></line>
      <g>
         <text x="-20" y="-2225" fill="blueviolet" text-anchor="end" font-size="20" font-family="comic sans Ms" stroke="blueviolet">BurgerpantsShop</text>
         <line x1="0" x2="0" y1="-2227.5" y2="-2227.5" stroke="chocolate" stroke-width="10"></line>
      </g>
      <line x1="0" y1="0" x2="0" y2="-2225" stroke-width="3" stroke="blue"></line>
      <line x1="0" y1="0" x2="880" y2="0" stroke-width="3" stroke="red"></line>
      <line x1="0" y1="-2385" x2="880" y2="-2385" stroke-width="3" stroke="red"></line>
      <g>
         <text x="-20" y="-2270" fill="blueviolet" text-anchor="end" font-size="20" font-family="comic sans Ms" stroke="blueviolet">BurgerpantsShop</text>
         <line x1="0" x2="0" y1="-2272.5" y2="-2272.5" stroke="chocolate" stroke-width="10"></line>
      </g>
      <line x1="0" y1="0" x2="0" y2="-2270" stroke-width="3" stroke="blue"></line>
      <line x1="0" y1="0" x2="880" y2="0" stroke-width="3" stroke="red"></line>
      <line x1="0" y1="-2385" x2="880" y2="-2385" stroke-width="3" stroke="red"></line>
      <g>
         <text x="-20" y="-2315" fill="blueviolet" text-anchor="end" font-size="20" font-family="comic sans Ms" stroke="blueviolet">Restaurant</text>
         <line x1="0" x2="264" y1="-2317.5" y2="-2317.5" stroke="chocolate" stroke-width="10"></line>
      </g>
      <line x1="0" y1="0" x2="0" y2="-2315" stroke-width="3" stroke="blue"></line>
      <line x1="0" y1="0" x2="880" y2="0" stroke-width="3" stroke="red"></line>
      <line x1="0" y1="-2385" x2="880" y2="-2385" stroke-width="3" stroke="red"></line>
      <g>
         <text x="-20" y="-2360" fill="blueviolet" text-anchor="end" font-size="20" font-family="comic sans Ms" stroke="blueviolet">CoreEntrance</text>
         <line x1="0" x2="40" y1="-2362.5" y2="-2362.5" stroke="chocolate" stroke-width="10"></line>
      </g>
      <line x1="0" y1="0" x2="0" y2="-2360" stroke-width="3" stroke="blue"></line>
      <line x1="0" y1="0" x2="880" y2="0" stroke-width="3" stroke="red"></line>
      <line x1="0" y1="-2385" x2="880" y2="-2385" stroke-width="3" stroke="red"></line>
   </g>
</svg>