<?xml version="1.0" encoding="UTF-8"?><svg xmlns="http://www.w3.org/2000/svg" width="2000" height="2000" style="background-color: black;">
    <g transform="translate(300, 1900), scale(.75)">
        <text x="0" y="20" font-size="20" font-family="papyrus" stroke="white">0</text>
        <text x="80" y="25" font-size="20" font-family="papyrus" stroke="white">10</text>
        <line x1="89" x2="89" y1="0" y2="-10" stroke-width="3" stroke="white"></line>
        <text x="160" y="25" font-size="20" font-family="papyrus" stroke="white">20</text>
        <line x1="169" x2="169" y1="0" y2="-10" stroke-width="3" stroke="white"></line>
        <text x="240" y="25" font-size="20" font-family="papyrus" stroke="white">30</text>
        <line x1="249" x2="249" y1="0" y2="-10" stroke-width="3" stroke="white"></line>
        <text x="320" y="25" font-size="20" font-family="papyrus" stroke="white">40</text>
        <line x1="329" x2="329" y1="0" y2="-10" stroke-width="3" stroke="white"></line>
        <text x="400" y="25" font-size="20" font-family="papyrus" stroke="white">50</text>
        <line x1="409" x2="409" y1="0" y2="-10" stroke-width="3" stroke="white"></line>
        <text x="480" y="25" font-size="20" font-family="papyrus" stroke="white">60</text>
        <line x1="489" x2="489" y1="0" y2="-10" stroke-width="3" stroke="white"></line>
        <text x="560" y="25" font-size="20" font-family="papyrus" stroke="white">70</text>
        <line x1="569" x2="569" y1="0" y2="-10" stroke-width="3" stroke="white"></line>
        <text x="640" y="25" font-size="20" font-family="papyrus" stroke="white">80</text>
        <line x1="649" x2="649" y1="0" y2="-10" stroke-width="3" stroke="white"></line>
        <text x="720" y="25" font-size="20" font-family="papyrus" stroke="white">90</text>
        <line x1="729" x2="729" y1="0" y2="-10" stroke-width="3" stroke="white"></line>
        <text x="800" y="25" font-size="20" font-family="papyrus" stroke="white">100</text>
        <line x1="809" x2="809" y1="0" y2="-10" stroke-width="3" stroke="white"></line>
        <text x="5" y="-330" font-size="20" font-family="papyrus" stroke="white">0</text>
        <text x="80" y="-330" font-size="20" font-family="papyrus" stroke="white">10</text>
        <line x1="89" x2="89" y1="-315" y2="-305" stroke-width="3" stroke="white"></line>
        <text x="160" y="-330" font-size="20" font-family="papyrus" stroke="white">20</text>
        <line x1="169" x2="169" y1="-315" y2="-305" stroke-width="3" stroke="white"></line>
        <text x="240" y="-330" font-size="20" font-family="papyrus" stroke="white">30</text>
        <line x1="249" x2="249" y1="-315" y2="-305" stroke-width="3" stroke="white"></line>
        <text x="320" y="-330" font-size="20" font-family="papyrus" stroke="white">40</text>
        <line x1="329" x2="329" y1="-315" y2="-305" stroke-width="3" stroke="white"></line>
        <text x="400" y="-330" font-size="20" font-family="papyrus" stroke="white">50</text>
        <line x1="409" x2="409" y1="-315" y2="-305" stroke-width="3" stroke="white"></line>
        <text x="480" y="-330" font-size="20" font-family="papyrus" stroke="white">60</text>
        <line x1="489" x2="489" y1="-315" y2="-305" stroke-width="3" stroke="white"></line>
        <text x="560" y="-330" font-size="20" font-family="papyrus" stroke="white">70</text>
        <line x1="569" x2="569" y1="-315" y2="-305" stroke-width="3" stroke="white"></line>
        <text x="640" y="-330" font-size="20" font-family="papyrus" stroke="white">80</text>
        <line x1="649" x2="649" y1="-315" y2="-305" stroke-width="3" stroke="white"></line>
        <text x="720" y="-330" font-size="20" font-family="papyrus" stroke="white">90</text>
        <line x1="729" x2="729" y1="-315" y2="-305" stroke-width="3" stroke="white"></line>
        <text x="800" y="-330" font-size="20" font-family="papyrus" stroke="white">100</text>
        <line x1="809" x2="809" y1="-315" y2="-305" stroke-width="3" stroke="white"></line>
        <text x="200" y="-415" stroke="white" font-size="30" font-family="papyrus">Available Dialogue Per
            Setting
        </text>
        <text x="355" y="-375" stroke="white" font-size="25" font-family="papyrus">CORE</text>
        <g>
            <text x="-20" y="-20" fill="blueviolet" text-anchor="end" font-size="20" font-family="comic sans Ms" stroke="blueviolet">Elevator Room</text>
            <line x1="0" x2="32" y1="-22.5" y2="-22.5" stroke="chocolate" stroke-width="10"></line>
            <text x="34" y="-22.5" font-size="20" font-family="papyrus" stroke="white">4</text>
        </g>
        <line x1="0" y1="0" x2="0" y2="-43" stroke-width="3" stroke="blue"></line>
        <line x1="0" y1="0" x2="880" y2="0" stroke-width="3" stroke="red"></line>
        <line x1="0" y1="-315" x2="880" y2="-315" stroke-width="3" stroke="red"></line>
        <g>
            <text x="-20" y="-65" fill="blueviolet" text-anchor="end" font-size="20" font-family="comic sans Ms" stroke="blueviolet">Flaming Pit Room</text>
            <line x1="0" x2="0" y1="-67.5" y2="-67.5" stroke="chocolate" stroke-width="10"></line>
            <text x="2" y="-67.5" font-size="20" font-family="papyrus" stroke="white">0</text>
        </g>
        <line x1="0" y1="0" x2="0" y2="-88" stroke-width="3" stroke="blue"></line>
        <line x1="0" y1="0" x2="880" y2="0" stroke-width="3" stroke="red"></line>
        <line x1="0" y1="-315" x2="880" y2="-315" stroke-width="3" stroke="red"></line>
        <g>
            <text x="-20" y="-110" fill="blueviolet" text-anchor="end" font-size="20" font-family="comic sans Ms" stroke="blueviolet">Laser Hallway</text>
            <line x1="0" x2="128" y1="-112.5" y2="-112.5" stroke="chocolate" stroke-width="10"></line>
            <text x="130" y="-112.5" font-size="20" font-family="papyrus" stroke="white">16</text>
        </g>
        <line x1="0" y1="0" x2="0" y2="-133" stroke-width="3" stroke="blue"></line>
        <line x1="0" y1="0" x2="880" y2="0" stroke-width="3" stroke="red"></line>
        <line x1="0" y1="-315" x2="880" y2="-315" stroke-width="3" stroke="red"></line>
        <g>
            <text x="-20" y="-155" fill="blueviolet" text-anchor="end" font-size="20" font-family="comic sans Ms" stroke="blueviolet">Branching Hallway</text>
            <line x1="0" x2="64" y1="-157.5" y2="-157.5" stroke="chocolate" stroke-width="10"></line>
            <text x="66" y="-157.5" font-size="20" font-family="papyrus" stroke="white">8</text>
        </g>
        <line x1="0" y1="0" x2="0" y2="-178" stroke-width="3" stroke="blue"></line>
        <line x1="0" y1="0" x2="880" y2="0" stroke-width="3" stroke="red"></line>
        <line x1="0" y1="-315" x2="880" y2="-315" stroke-width="3" stroke="red"></line>
        <g>
            <text x="-20" y="-200" fill="blueviolet" text-anchor="end" font-size="20" font-family="comic sans Ms" stroke="blueviolet">Mettaton Room</text>
            <line x1="0" x2="280" y1="-202.5" y2="-202.5" stroke="chocolate" stroke-width="10"></line>
            <text x="282" y="-202.5" font-size="20" font-family="papyrus" stroke="white">35</text>
        </g>
        <line x1="0" y1="0" x2="0" y2="-223" stroke-width="3" stroke="blue"></line>
        <line x1="0" y1="0" x2="880" y2="0" stroke-width="3" stroke="red"></line>
        <line x1="0" y1="-315" x2="880" y2="-315" stroke-width="3" stroke="red"></line>
        <g>
            <text x="-20" y="-245" fill="blueviolet" text-anchor="end" font-size="20" font-family="comic sans Ms" stroke="blueviolet">Mettaton Room</text>
            <line x1="0" x2="112" y1="-247.5" y2="-247.5" stroke="chocolate" stroke-width="10"></line>
            <text x="114" y="-247.5" font-size="20" font-family="papyrus" stroke="white">14</text>
        </g>
        <line x1="0" y1="0" x2="0" y2="-268" stroke-width="3" stroke="blue"></line>
        <line x1="0" y1="0" x2="880" y2="0" stroke-width="3" stroke="red"></line>
        <line x1="0" y1="-315" x2="880" y2="-315" stroke-width="3" stroke="red"></line>
        <g>
            <text x="-20" y="-290" fill="blueviolet" text-anchor="end" font-size="20" font-family="comic sans Ms" stroke="blueviolet">Mettaton Room</text>
            <line x1="0" x2="96" y1="-292.5" y2="-292.5" stroke="chocolate" stroke-width="10"></line>
            <text x="98" y="-292.5" font-size="20" font-family="papyrus" stroke="white">12</text>
        </g>
        <line x1="0" y1="0" x2="0" y2="-313" stroke-width="3" stroke="blue"></line>
        <line x1="0" y1="0" x2="880" y2="0" stroke-width="3" stroke="red"></line>
        <line x1="0" y1="-315" x2="880" y2="-315" stroke-width="3" stroke="red"></line>
    </g>
</svg>