<?xml version="1.0" encoding="UTF-8"?><svg xmlns="http://www.w3.org/2000/svg" width="2000" height="1000" style="background-color: black;">
      <g transform="translate(300, 800), scale(.85)">
            <text x="0" y="20" font-size="20" font-family="papyrus" stroke="white">0</text>
            <text x="80" y="25" font-size="20" font-family="papyrus" stroke="white">10</text>
            <line x1="89" x2="89" y1="0" y2="-10" stroke-width="3" stroke="white"></line>
            <text x="160" y="25" font-size="20" font-family="papyrus" stroke="white">20</text>
            <line x1="169" x2="169" y1="0" y2="-10" stroke-width="3" stroke="white"></line>
            <text x="240" y="25" font-size="20" font-family="papyrus" stroke="white">30</text>
            <line x1="249" x2="249" y1="0" y2="-10" stroke-width="3" stroke="white"></line>
            <text x="320" y="25" font-size="20" font-family="papyrus" stroke="white">40</text>
            <line x1="329" x2="329" y1="0" y2="-10" stroke-width="3" stroke="white"></line>
            <text x="400" y="25" font-size="20" font-family="papyrus" stroke="white">50</text>
            <line x1="409" x2="409" y1="0" y2="-10" stroke-width="3" stroke="white"></line>
            <text x="480" y="25" font-size="20" font-family="papyrus" stroke="white">60</text>
            <line x1="489" x2="489" y1="0" y2="-10" stroke-width="3" stroke="white"></line>
            <text x="560" y="25" font-size="20" font-family="papyrus" stroke="white">70</text>
            <line x1="569" x2="569" y1="0" y2="-10" stroke-width="3" stroke="white"></line>
            <text x="640" y="25" font-size="20" font-family="papyrus" stroke="white">80</text>
            <line x1="649" x2="649" y1="0" y2="-10" stroke-width="3" stroke="white"></line>
            <text x="720" y="25" font-size="20" font-family="papyrus" stroke="white">90</text>
            <line x1="729" x2="729" y1="0" y2="-10" stroke-width="3" stroke="white"></line>
            <text x="800" y="25" font-size="20" font-family="papyrus" stroke="white">100</text>
            <line x1="809" x2="809" y1="0" y2="-10" stroke-width="3" stroke="white"></line>
            <text x="5" y="-690" font-size="20" font-family="papyrus" stroke="white">0</text>
            <text x="80" y="-690" font-size="20" font-family="papyrus" stroke="white">10</text>
            <line x1="89" x2="89" y1="-675" y2="-665" stroke-width="3" stroke="white"></line>
            <text x="160" y="-690" font-size="20" font-family="papyrus" stroke="white">20</text>
            <line x1="169" x2="169" y1="-675" y2="-665" stroke-width="3" stroke="white"></line>
            <text x="240" y="-690" font-size="20" font-family="papyrus" stroke="white">30</text>
            <line x1="249" x2="249" y1="-675" y2="-665" stroke-width="3" stroke="white"></line>
            <text x="320" y="-690" font-size="20" font-family="papyrus" stroke="white">40</text>
            <line x1="329" x2="329" y1="-675" y2="-665" stroke-width="3" stroke="white"></line>
            <text x="400" y="-690" font-size="20" font-family="papyrus" stroke="white">50</text>
            <line x1="409" x2="409" y1="-675" y2="-665" stroke-width="3" stroke="white"></line>
            <text x="480" y="-690" font-size="20" font-family="papyrus" stroke="white">60</text>
            <line x1="489" x2="489" y1="-675" y2="-665" stroke-width="3" stroke="white"></line>
            <text x="560" y="-690" font-size="20" font-family="papyrus" stroke="white">70</text>
            <line x1="569" x2="569" y1="-675" y2="-665" stroke-width="3" stroke="white"></line>
            <text x="640" y="-690" font-size="20" font-family="papyrus" stroke="white">80</text>
            <line x1="649" x2="649" y1="-675" y2="-665" stroke-width="3" stroke="white"></line>
            <text x="720" y="-690" font-size="20" font-family="papyrus" stroke="white">90</text>
            <line x1="729" x2="729" y1="-675" y2="-665" stroke-width="3" stroke="white"></line>
            <text x="800" y="-690" font-size="20" font-family="papyrus" stroke="white">100</text>
            <line x1="809" x2="809" y1="-675" y2="-665" stroke-width="3" stroke="white"></line>
            <text x="200" y="-775" stroke="white" font-size="30" font-family="papyrus">Available Dialogue Per
                  Setting
            </text>
            <text x="254" y="-735" stroke="white" font-size="25" font-family="papyrus">New Home/Dreemurr Castle</text>
            <g>
                  <text x="-20" y="-20" fill="blueviolet" text-anchor="end" font-size="20" font-family="comic sans Ms" stroke="blueviolet">New Home View</text>
                  <line x1="0" x2="8" y1="-22.5" y2="-22.5" stroke="chocolate" stroke-width="10"></line>
                  <text x="10" y="-22.5" font-size="20" font-family="papyrus" stroke="white">1</text>
            </g>
            <line x1="0" y1="0" x2="0" y2="-43" stroke-width="3" stroke="blue"></line>
            <line x1="0" y1="0" x2="880" y2="0" stroke-width="3" stroke="red"></line>
            <line x1="0" y1="-675" x2="880" y2="-675" stroke-width="3" stroke="red"></line>
            <g>
                  <text x="-20" y="-65" fill="blueviolet" text-anchor="end" font-size="20" font-family="comic sans Ms" stroke="blueviolet">Asgore's Foyer</text>
                  <line x1="0" x2="64" y1="-67.5" y2="-67.5" stroke="chocolate" stroke-width="10"></line>
                  <text x="66" y="-67.5" font-size="20" font-family="papyrus" stroke="white">8</text>
            </g>
            <line x1="0" y1="0" x2="0" y2="-88" stroke-width="3" stroke="blue"></line>
            <line x1="0" y1="0" x2="880" y2="0" stroke-width="3" stroke="red"></line>
            <line x1="0" y1="-675" x2="880" y2="-675" stroke-width="3" stroke="red"></line>
            <g>
                  <text x="-20" y="-110" fill="blueviolet" text-anchor="end" font-size="20" font-family="comic sans Ms" stroke="blueviolet">Living Room</text>
                  <line x1="0" x2="40" y1="-112.5" y2="-112.5" stroke="chocolate" stroke-width="10"></line>
                  <text x="42" y="-112.5" font-size="20" font-family="papyrus" stroke="white">5</text>
            </g>
            <line x1="0" y1="0" x2="0" y2="-133" stroke-width="3" stroke="blue"></line>
            <line x1="0" y1="0" x2="880" y2="0" stroke-width="3" stroke="red"></line>
            <line x1="0" y1="-675" x2="880" y2="-675" stroke-width="3" stroke="red"></line>
            <g>
                  <text x="-20" y="-155" fill="blueviolet" text-anchor="end" font-size="20" font-family="comic sans Ms" stroke="blueviolet">Kitchen</text>
                  <line x1="0" x2="56" y1="-157.5" y2="-157.5" stroke="chocolate" stroke-width="10"></line>
                  <text x="58" y="-157.5" font-size="20" font-family="papyrus" stroke="white">7</text>
            </g>
            <line x1="0" y1="0" x2="0" y2="-178" stroke-width="3" stroke="blue"></line>
            <line x1="0" y1="0" x2="880" y2="0" stroke-width="3" stroke="red"></line>
            <line x1="0" y1="-675" x2="880" y2="-675" stroke-width="3" stroke="red"></line>
            <g>
                  <text x="-20" y="-200" fill="blueviolet" text-anchor="end" font-size="20" font-family="comic sans Ms" stroke="blueviolet">Bedrooms</text>
                  <line x1="0" x2="56" y1="-202.5" y2="-202.5" stroke="chocolate" stroke-width="10"></line>
                  <text x="58" y="-202.5" font-size="20" font-family="papyrus" stroke="white">7</text>
            </g>
            <line x1="0" y1="0" x2="0" y2="-223" stroke-width="3" stroke="blue"></line>
            <line x1="0" y1="0" x2="880" y2="0" stroke-width="3" stroke="red"></line>
            <line x1="0" y1="-675" x2="880" y2="-675" stroke-width="3" stroke="red"></line>
            <g>
                  <text x="-20" y="-245" fill="blueviolet" text-anchor="end" font-size="20" font-family="comic sans Ms" stroke="blueviolet">Asgore's Room</text>
                  <line x1="0" x2="80" y1="-247.5" y2="-247.5" stroke="chocolate" stroke-width="10"></line>
                  <text x="82" y="-247.5" font-size="20" font-family="papyrus" stroke="white">10</text>
            </g>
            <line x1="0" y1="0" x2="0" y2="-268" stroke-width="3" stroke="blue"></line>
            <line x1="0" y1="0" x2="880" y2="0" stroke-width="3" stroke="red"></line>
            <line x1="0" y1="-675" x2="880" y2="-675" stroke-width="3" stroke="red"></line>
            <g>
                  <text x="-20" y="-290" fill="blueviolet" text-anchor="end" font-size="20" font-family="comic sans Ms" stroke="blueviolet">Children's Room</text>
                  <line x1="0" x2="120" y1="-292.5" y2="-292.5" stroke="chocolate" stroke-width="10"></line>
                  <text x="122" y="-292.5" font-size="20" font-family="papyrus" stroke="white">15</text>
            </g>
            <line x1="0" y1="0" x2="0" y2="-313" stroke-width="3" stroke="blue"></line>
            <line x1="0" y1="0" x2="880" y2="0" stroke-width="3" stroke="red"></line>
            <line x1="0" y1="-675" x2="880" y2="-675" stroke-width="3" stroke="red"></line>
            <g>
                  <text x="-20" y="-335" fill="blueviolet" text-anchor="end" font-size="20" font-family="comic sans Ms" stroke="blueviolet">Coffins</text>
                  <line x1="0" x2="24" y1="-337.5" y2="-337.5" stroke="chocolate" stroke-width="10"></line>
                  <text x="26" y="-337.5" font-size="20" font-family="papyrus" stroke="white">3</text>
            </g>
            <line x1="0" y1="0" x2="0" y2="-358" stroke-width="3" stroke="blue"></line>
            <line x1="0" y1="0" x2="880" y2="0" stroke-width="3" stroke="red"></line>
            <line x1="0" y1="-675" x2="880" y2="-675" stroke-width="3" stroke="red"></line>
            <g>
                  <text x="-20" y="-380" fill="blueviolet" text-anchor="end" font-size="20" font-family="comic sans Ms" stroke="blueviolet">Judgment Hall</text>
                  <line x1="0" x2="432" y1="-382.5" y2="-382.5" stroke="chocolate" stroke-width="10"></line>
                  <text x="434" y="-382.5" font-size="20" font-family="papyrus" stroke="white">54</text>
            </g>
            <line x1="0" y1="0" x2="0" y2="-403" stroke-width="3" stroke="blue"></line>
            <line x1="0" y1="0" x2="880" y2="0" stroke-width="3" stroke="red"></line>
            <line x1="0" y1="-675" x2="880" y2="-675" stroke-width="3" stroke="red"></line>
            <g>
                  <text x="-20" y="-425" fill="blueviolet" text-anchor="end" font-size="20" font-family="comic sans Ms" stroke="blueviolet">Throne Room Entrance</text>
                  <line x1="0" x2="8" y1="-427.5" y2="-427.5" stroke="chocolate" stroke-width="10"></line>
                  <text x="10" y="-427.5" font-size="20" font-family="papyrus" stroke="white">1</text>
            </g>
            <line x1="0" y1="0" x2="0" y2="-448" stroke-width="3" stroke="blue"></line>
            <line x1="0" y1="0" x2="880" y2="0" stroke-width="3" stroke="red"></line>
            <line x1="0" y1="-675" x2="880" y2="-675" stroke-width="3" stroke="red"></line>
            <g>
                  <text x="-20" y="-470" fill="blueviolet" text-anchor="end" font-size="20" font-family="comic sans Ms" stroke="blueviolet">Throne Room</text>
                  <line x1="0" x2="152" y1="-472.5" y2="-472.5" stroke="chocolate" stroke-width="10"></line>
                  <text x="154" y="-472.5" font-size="20" font-family="papyrus" stroke="white">19</text>
            </g>
            <line x1="0" y1="0" x2="0" y2="-493" stroke-width="3" stroke="blue"></line>
            <line x1="0" y1="0" x2="880" y2="0" stroke-width="3" stroke="red"></line>
            <line x1="0" y1="-675" x2="880" y2="-675" stroke-width="3" stroke="red"></line>
            <g>
                  <text x="-20" y="-515" fill="blueviolet" text-anchor="end" font-size="20" font-family="comic sans Ms" stroke="blueviolet">The End</text>
                  <line x1="0" x2="48" y1="-517.5" y2="-517.5" stroke="chocolate" stroke-width="10"></line>
                  <text x="50" y="-517.5" font-size="20" font-family="papyrus" stroke="white">6</text>
            </g>
            <line x1="0" y1="0" x2="0" y2="-538" stroke-width="3" stroke="blue"></line>
            <line x1="0" y1="0" x2="880" y2="0" stroke-width="3" stroke="red"></line>
            <line x1="0" y1="-675" x2="880" y2="-675" stroke-width="3" stroke="red"></line>
            <g>
                  <text x="-20" y="-560" fill="blueviolet" text-anchor="end" font-size="20" font-family="comic sans Ms" stroke="blueviolet">Barrier</text>
                  <line x1="0" x2="144" y1="-562.5" y2="-562.5" stroke="chocolate" stroke-width="10"></line>
                  <text x="146" y="-562.5" font-size="20" font-family="papyrus" stroke="white">18</text>
            </g>
            <line x1="0" y1="0" x2="0" y2="-583" stroke-width="3" stroke="blue"></line>
            <line x1="0" y1="0" x2="880" y2="0" stroke-width="3" stroke="red"></line>
            <line x1="0" y1="-675" x2="880" y2="-675" stroke-width="3" stroke="red"></line>
            <g>
                  <text x="-20" y="-605" fill="blueviolet" text-anchor="end" font-size="20" font-family="comic sans Ms" stroke="blueviolet">Flowey</text>
                  <line x1="0" x2="24" y1="-607.5" y2="-607.5" stroke="chocolate" stroke-width="10"></line>
                  <text x="26" y="-607.5" font-size="20" font-family="papyrus" stroke="white">3</text>
            </g>
            <line x1="0" y1="0" x2="0" y2="-628" stroke-width="3" stroke="blue"></line>
            <line x1="0" y1="0" x2="880" y2="0" stroke-width="3" stroke="red"></line>
            <line x1="0" y1="-675" x2="880" y2="-675" stroke-width="3" stroke="red"></line>
            <g>
                  <text x="-20" y="-650" fill="blueviolet" text-anchor="end" font-size="20" font-family="comic sans Ms" stroke="blueviolet">Flowey's Save File</text>
                  <line x1="0" x2="16" y1="-652.5" y2="-652.5" stroke="chocolate" stroke-width="10"></line>
                  <text x="18" y="-652.5" font-size="20" font-family="papyrus" stroke="white">2</text>
            </g>
            <line x1="0" y1="0" x2="0" y2="-673" stroke-width="3" stroke="blue"></line>
            <line x1="0" y1="0" x2="880" y2="0" stroke-width="3" stroke="red"></line>
            <line x1="0" y1="-675" x2="880" y2="-675" stroke-width="3" stroke="red"></line>
      </g>
</svg>