<?xml version="1.0" encoding="UTF-8"?><svg xmlns="http://www.w3.org/2000/svg" width="2000" height="1500" style="background-color: black;">
   <g transform="translate(300, 1400), scale(.80)">
      <text x="0" y="20" font-size="20" font-family="papyrus" stroke="white">0</text>
      <text x="80" y="25" font-size="20" font-family="papyrus" stroke="white">10</text>
      <line x1="89" x2="89" y1="0" y2="-10" stroke-width="3" stroke="white"></line>
      <text x="160" y="25" font-size="20" font-family="papyrus" stroke="white">20</text>
      <line x1="169" x2="169" y1="0" y2="-10" stroke-width="3" stroke="white"></line>
      <text x="240" y="25" font-size="20" font-family="papyrus" stroke="white">30</text>
      <line x1="249" x2="249" y1="0" y2="-10" stroke-width="3" stroke="white"></line>
      <text x="320" y="25" font-size="20" font-family="papyrus" stroke="white">40</text>
      <line x1="329" x2="329" y1="0" y2="-10" stroke-width="3" stroke="white"></line>
      <text x="400" y="25" font-size="20" font-family="papyrus" stroke="white">50</text>
      <line x1="409" x2="409" y1="0" y2="-10" stroke-width="3" stroke="white"></line>
      <text x="480" y="25" font-size="20" font-family="papyrus" stroke="white">60</text>
      <line x1="489" x2="489" y1="0" y2="-10" stroke-width="3" stroke="white"></line>
      <text x="560" y="25" font-size="20" font-family="papyrus" stroke="white">70</text>
      <line x1="569" x2="569" y1="0" y2="-10" stroke-width="3" stroke="white"></line>
      <text x="640" y="25" font-size="20" font-family="papyrus" stroke="white">80</text>
      <line x1="649" x2="649" y1="0" y2="-10" stroke-width="3" stroke="white"></line>
      <text x="720" y="25" font-size="20" font-family="papyrus" stroke="white">90</text>
      <line x1="729" x2="729" y1="0" y2="-10" stroke-width="3" stroke="white"></line>
      <text x="800" y="25" font-size="20" font-family="papyrus" stroke="white">100</text>
      <line x1="809" x2="809" y1="0" y2="-10" stroke-width="3" stroke="white"></line>
      <text x="5" y="-1500" font-size="20" font-family="papyrus" stroke="white">0</text>
      <text x="80" y="-1500" font-size="20" font-family="papyrus" stroke="white">10</text>
      <line x1="89" x2="89" y1="-1485" y2="-1475" stroke-width="3" stroke="white"></line>
      <text x="160" y="-1500" font-size="20" font-family="papyrus" stroke="white">20</text>
      <line x1="169" x2="169" y1="-1485" y2="-1475" stroke-width="3" stroke="white"></line>
      <text x="240" y="-1500" font-size="20" font-family="papyrus" stroke="white">30</text>
      <line x1="249" x2="249" y1="-1485" y2="-1475" stroke-width="3" stroke="white"></line>
      <text x="320" y="-1500" font-size="20" font-family="papyrus" stroke="white">40</text>
      <line x1="329" x2="329" y1="-1485" y2="-1475" stroke-width="3" stroke="white"></line>
      <text x="400" y="-1500" font-size="20" font-family="papyrus" stroke="white">50</text>
      <line x1="409" x2="409" y1="-1485" y2="-1475" stroke-width="3" stroke="white"></line>
      <text x="480" y="-1500" font-size="20" font-family="papyrus" stroke="white">60</text>
      <line x1="489" x2="489" y1="-1485" y2="-1475" stroke-width="3" stroke="white"></line>
      <text x="560" y="-1500" font-size="20" font-family="papyrus" stroke="white">70</text>
      <line x1="569" x2="569" y1="-1485" y2="-1475" stroke-width="3" stroke="white"></line>
      <text x="640" y="-1500" font-size="20" font-family="papyrus" stroke="white">80</text>
      <line x1="649" x2="649" y1="-1485" y2="-1475" stroke-width="3" stroke="white"></line>
      <text x="720" y="-1500" font-size="20" font-family="papyrus" stroke="white">90</text>
      <line x1="729" x2="729" y1="-1485" y2="-1475" stroke-width="3" stroke="white"></line>
      <text x="800" y="-1500" font-size="20" font-family="papyrus" stroke="white">100</text>
      <line x1="809" x2="809" y1="-1485" y2="-1475" stroke-width="3" stroke="white"></line>
      <text x="200" y="-1585" stroke="white" font-size="30" font-family="papyrus">Available Dialogue Per
         Setting
      </text>
      <text x="355" y="-1545" stroke="white" font-size="25" font-family="papyrus">Ruins</text>
      <g>
         <text x="-20" y="-20" fill="blueviolet" text-anchor="end" font-size="20" font-family="comic sans Ms" stroke="blueviolet">Flowey  Hall</text>
         <line x1="0" x2="312" y1="-22.5" y2="-22.5" stroke="chocolate" stroke-width="10"></line>
         <text x="314" y="-22.5" font-size="20" font-family="papyrus" stroke="white">39</text>
      </g>
      <line x1="0" y1="0" x2="0" y2="-43" stroke-width="3" stroke="blue"></line>
      <line x1="0" y1="0" x2="880" y2="0" stroke-width="3" stroke="red"></line>
      <line x1="0" y1="-1485" x2="880" y2="-1485" stroke-width="3" stroke="red"></line>
      <g>
         <text x="-20" y="-65" fill="blueviolet" text-anchor="end" font-size="20" font-family="comic sans Ms" stroke="blueviolet">Ruins Entrance</text>
         <line x1="0" x2="8" y1="-67.5" y2="-67.5" stroke="chocolate" stroke-width="10"></line>
         <text x="10" y="-67.5" font-size="20" font-family="papyrus" stroke="white">1</text>
      </g>
      <line x1="0" y1="0" x2="0" y2="-88" stroke-width="3" stroke="blue"></line>
      <line x1="0" y1="0" x2="880" y2="0" stroke-width="3" stroke="red"></line>
      <line x1="0" y1="-1485" x2="880" y2="-1485" stroke-width="3" stroke="red"></line>
      <g>
         <text x="-20" y="-110" fill="blueviolet" text-anchor="end" font-size="20" font-family="comic sans Ms" stroke="blueviolet">1st Puzzle Room</text>
         <line x1="0" x2="56" y1="-112.5" y2="-112.5" stroke="chocolate" stroke-width="10"></line>
         <text x="58" y="-112.5" font-size="20" font-family="papyrus" stroke="white">7</text>
      </g>
      <line x1="0" y1="0" x2="0" y2="-133" stroke-width="3" stroke="blue"></line>
      <line x1="0" y1="0" x2="880" y2="0" stroke-width="3" stroke="red"></line>
      <line x1="0" y1="-1485" x2="880" y2="-1485" stroke-width="3" stroke="red"></line>
      <g>
         <text x="-20" y="-155" fill="blueviolet" text-anchor="end" font-size="20" font-family="comic sans Ms" stroke="blueviolet">Lablled Switch Room</text>
         <line x1="0" x2="120" y1="-157.5" y2="-157.5" stroke="chocolate" stroke-width="10"></line>
         <text x="122" y="-157.5" font-size="20" font-family="papyrus" stroke="white">15</text>
      </g>
      <line x1="0" y1="0" x2="0" y2="-178" stroke-width="3" stroke="blue"></line>
      <line x1="0" y1="0" x2="880" y2="0" stroke-width="3" stroke="red"></line>
      <line x1="0" y1="-1485" x2="880" y2="-1485" stroke-width="3" stroke="red"></line>
      <g>
         <text x="-20" y="-200" fill="blueviolet" text-anchor="end" font-size="20" font-family="comic sans Ms" stroke="blueviolet">Dummy Room</text>
         <line x1="0" x2="248" y1="-202.5" y2="-202.5" stroke="chocolate" stroke-width="10"></line>
         <text x="250" y="-202.5" font-size="20" font-family="papyrus" stroke="white">31</text>
      </g>
      <line x1="0" y1="0" x2="0" y2="-223" stroke-width="3" stroke="blue"></line>
      <line x1="0" y1="0" x2="880" y2="0" stroke-width="3" stroke="red"></line>
      <line x1="0" y1="-1485" x2="880" y2="-1485" stroke-width="3" stroke="red"></line>
      <g>
         <text x="-20" y="-245" fill="blueviolet" text-anchor="end" font-size="20" font-family="comic sans Ms" stroke="blueviolet">Spiked Tile Room</text>
         <line x1="0" x2="48" y1="-247.5" y2="-247.5" stroke="chocolate" stroke-width="10"></line>
         <text x="50" y="-247.5" font-size="20" font-family="papyrus" stroke="white">6</text>
      </g>
      <line x1="0" y1="0" x2="0" y2="-268" stroke-width="3" stroke="blue"></line>
      <line x1="0" y1="0" x2="880" y2="0" stroke-width="3" stroke="red"></line>
      <line x1="0" y1="-1485" x2="880" y2="-1485" stroke-width="3" stroke="red"></line>
      <g>
         <text x="-20" y="-290" fill="blueviolet" text-anchor="end" font-size="20" font-family="comic sans Ms" stroke="blueviolet">Independence Hallway</text>
         <line x1="0" x2="128" y1="-292.5" y2="-292.5" stroke="chocolate" stroke-width="10"></line>
         <text x="130" y="-292.5" font-size="20" font-family="papyrus" stroke="white">16</text>
      </g>
      <line x1="0" y1="0" x2="0" y2="-313" stroke-width="3" stroke="blue"></line>
      <line x1="0" y1="0" x2="880" y2="0" stroke-width="3" stroke="red"></line>
      <line x1="0" y1="-1485" x2="880" y2="-1485" stroke-width="3" stroke="red"></line>
      <g>
         <text x="-20" y="-335" fill="blueviolet" text-anchor="end" font-size="20" font-family="comic sans Ms" stroke="blueviolet">Leaf Pile Save Room</text>
         <line x1="0" x2="56" y1="-337.5" y2="-337.5" stroke="chocolate" stroke-width="10"></line>
         <text x="58" y="-337.5" font-size="20" font-family="papyrus" stroke="white">7</text>
      </g>
      <line x1="0" y1="0" x2="0" y2="-358" stroke-width="3" stroke="blue"></line>
      <line x1="0" y1="0" x2="880" y2="0" stroke-width="3" stroke="red"></line>
      <line x1="0" y1="-1485" x2="880" y2="-1485" stroke-width="3" stroke="red"></line>
      <g>
         <text x="-20" y="-380" fill="blueviolet" text-anchor="end" font-size="20" font-family="comic sans Ms" stroke="blueviolet">Monster Candy Room</text>
         <line x1="0" x2="88" y1="-382.5" y2="-382.5" stroke="chocolate" stroke-width="10"></line>
         <text x="90" y="-382.5" font-size="20" font-family="papyrus" stroke="white">11</text>
      </g>
      <line x1="0" y1="0" x2="0" y2="-403" stroke-width="3" stroke="blue"></line>
      <line x1="0" y1="0" x2="880" y2="0" stroke-width="3" stroke="red"></line>
      <line x1="0" y1="-1485" x2="880" y2="-1485" stroke-width="3" stroke="red"></line>
      <g>
         <text x="-20" y="-425" fill="blueviolet" text-anchor="end" font-size="20" font-family="comic sans Ms" stroke="blueviolet">1st Rock Puzzle</text>
         <line x1="0" x2="176" y1="-427.5" y2="-427.5" stroke="chocolate" stroke-width="10"></line>
         <text x="178" y="-427.5" font-size="20" font-family="papyrus" stroke="white">22</text>
      </g>
      <line x1="0" y1="0" x2="0" y2="-448" stroke-width="3" stroke="blue"></line>
      <line x1="0" y1="0" x2="880" y2="0" stroke-width="3" stroke="red"></line>
      <line x1="0" y1="-1485" x2="880" y2="-1485" stroke-width="3" stroke="red"></line>
      <g>
         <text x="-20" y="-470" fill="blueviolet" text-anchor="end" font-size="20" font-family="comic sans Ms" stroke="blueviolet">Dont-Step-On-The-Leaves Room</text>
         <line x1="0" x2="8" y1="-472.5" y2="-472.5" stroke="chocolate" stroke-width="10"></line>
         <text x="10" y="-472.5" font-size="20" font-family="papyrus" stroke="white">1</text>
      </g>
      <line x1="0" y1="0" x2="0" y2="-493" stroke-width="3" stroke="blue"></line>
      <line x1="0" y1="0" x2="880" y2="0" stroke-width="3" stroke="red"></line>
      <line x1="0" y1="-1485" x2="880" y2="-1485" stroke-width="3" stroke="red"></line>
      <g>
         <text x="-20" y="-515" fill="blueviolet" text-anchor="end" font-size="20" font-family="comic sans Ms" stroke="blueviolet">2nd Cracked Tile Room</text>
         <line x1="0" x2="8" y1="-517.5" y2="-517.5" stroke="chocolate" stroke-width="10"></line>
         <text x="10" y="-517.5" font-size="20" font-family="papyrus" stroke="white">1</text>
      </g>
      <line x1="0" y1="0" x2="0" y2="-538" stroke-width="3" stroke="blue"></line>
      <line x1="0" y1="0" x2="880" y2="0" stroke-width="3" stroke="red"></line>
      <line x1="0" y1="-1485" x2="880" y2="-1485" stroke-width="3" stroke="red"></line>
      <g>
         <text x="-20" y="-560" fill="blueviolet" text-anchor="end" font-size="20" font-family="comic sans Ms" stroke="blueviolet">2nd Rock Puzzle Room</text>
         <line x1="0" x2="88" y1="-562.5" y2="-562.5" stroke="chocolate" stroke-width="10"></line>
         <text x="90" y="-562.5" font-size="20" font-family="papyrus" stroke="white">11</text>
      </g>
      <line x1="0" y1="0" x2="0" y2="-583" stroke-width="3" stroke="blue"></line>
      <line x1="0" y1="0" x2="880" y2="0" stroke-width="3" stroke="red"></line>
      <line x1="0" y1="-1485" x2="880" y2="-1485" stroke-width="3" stroke="red"></line>
      <g>
         <text x="-20" y="-605" fill="blueviolet" text-anchor="end" font-size="20" font-family="comic sans Ms" stroke="blueviolet">Table-With-Cheese Room</text>
         <line x1="0" x2="32" y1="-607.5" y2="-607.5" stroke="chocolate" stroke-width="10"></line>
         <text x="34" y="-607.5" font-size="20" font-family="papyrus" stroke="white">4</text>
      </g>
      <line x1="0" y1="0" x2="0" y2="-628" stroke-width="3" stroke="blue"></line>
      <line x1="0" y1="0" x2="880" y2="0" stroke-width="3" stroke="red"></line>
      <line x1="0" y1="-1485" x2="880" y2="-1485" stroke-width="3" stroke="red"></line>
      <g>
         <text x="-20" y="-650" fill="blueviolet" text-anchor="end" font-size="20" font-family="comic sans Ms" stroke="blueviolet">Napstablook Room</text>
         <line x1="0" x2="72" y1="-652.5" y2="-652.5" stroke="chocolate" stroke-width="10"></line>
         <text x="74" y="-652.5" font-size="20" font-family="papyrus" stroke="white">9</text>
      </g>
      <line x1="0" y1="0" x2="0" y2="-673" stroke-width="3" stroke="blue"></line>
      <line x1="0" y1="0" x2="880" y2="0" stroke-width="3" stroke="red"></line>
      <line x1="0" y1="-1485" x2="880" y2="-1485" stroke-width="3" stroke="red"></line>
      <g>
         <text x="-20" y="-695" fill="blueviolet" text-anchor="end" font-size="20" font-family="comic sans Ms" stroke="blueviolet">Spider Bake Sale</text>
         <line x1="0" x2="72" y1="-697.5" y2="-697.5" stroke="chocolate" stroke-width="10"></line>
         <text x="74" y="-697.5" font-size="20" font-family="papyrus" stroke="white">9</text>
      </g>
      <line x1="0" y1="0" x2="0" y2="-718" stroke-width="3" stroke="blue"></line>
      <line x1="0" y1="0" x2="880" y2="0" stroke-width="3" stroke="red"></line>
      <line x1="0" y1="-1485" x2="880" y2="-1485" stroke-width="3" stroke="red"></line>
      <g>
         <text x="-20" y="-740" fill="blueviolet" text-anchor="end" font-size="20" font-family="comic sans Ms" stroke="blueviolet">Froggit Hallway</text>
         <line x1="0" x2="192" y1="-742.5" y2="-742.5" stroke="chocolate" stroke-width="10"></line>
         <text x="194" y="-742.5" font-size="20" font-family="papyrus" stroke="white">24</text>
      </g>
      <line x1="0" y1="0" x2="0" y2="-763" stroke-width="3" stroke="blue"></line>
      <line x1="0" y1="0" x2="880" y2="0" stroke-width="3" stroke="red"></line>
      <line x1="0" y1="-1485" x2="880" y2="-1485" stroke-width="3" stroke="red"></line>
      <g>
         <text x="-20" y="-785" fill="blueviolet" text-anchor="end" font-size="20" font-family="comic sans Ms" stroke="blueviolet">Six Holes Room</text>
         <line x1="0" x2="32" y1="-787.5" y2="-787.5" stroke="chocolate" stroke-width="10"></line>
         <text x="34" y="-787.5" font-size="20" font-family="papyrus" stroke="white">4</text>
      </g>
      <line x1="0" y1="0" x2="0" y2="-808" stroke-width="3" stroke="blue"></line>
      <line x1="0" y1="0" x2="880" y2="0" stroke-width="3" stroke="red"></line>
      <line x1="0" y1="-1485" x2="880" y2="-1485" stroke-width="3" stroke="red"></line>
      <g>
         <text x="-20" y="-830" fill="blueviolet" text-anchor="end" font-size="20" font-family="comic sans Ms" stroke="blueviolet">Six Switches Puzzle</text>
         <line x1="0" x2="8" y1="-832.5" y2="-832.5" stroke="chocolate" stroke-width="10"></line>
         <text x="10" y="-832.5" font-size="20" font-family="papyrus" stroke="white">1</text>
      </g>
      <line x1="0" y1="0" x2="0" y2="-853" stroke-width="3" stroke="blue"></line>
      <line x1="0" y1="0" x2="880" y2="0" stroke-width="3" stroke="red"></line>
      <line x1="0" y1="-1485" x2="880" y2="-1485" stroke-width="3" stroke="red"></line>
      <g>
         <text x="-20" y="-875" fill="blueviolet" text-anchor="end" font-size="20" font-family="comic sans Ms" stroke="blueviolet">Switches Room</text>
         <line x1="0" x2="144" y1="-877.5" y2="-877.5" stroke="chocolate" stroke-width="10"></line>
         <text x="146" y="-877.5" font-size="20" font-family="papyrus" stroke="white">18</text>
      </g>
      <line x1="0" y1="0" x2="0" y2="-898" stroke-width="3" stroke="blue"></line>
      <line x1="0" y1="0" x2="880" y2="0" stroke-width="3" stroke="red"></line>
      <line x1="0" y1="-1485" x2="880" y2="-1485" stroke-width="3" stroke="red"></line>
      <g>
         <text x="-20" y="-920" fill="blueviolet" text-anchor="end" font-size="20" font-family="comic sans Ms" stroke="blueviolet">Froggit Near Toy Knife Room</text>
         <line x1="0" x2="40" y1="-922.5" y2="-922.5" stroke="chocolate" stroke-width="10"></line>
         <text x="42" y="-922.5" font-size="20" font-family="papyrus" stroke="white">5</text>
      </g>
      <line x1="0" y1="0" x2="0" y2="-943" stroke-width="3" stroke="blue"></line>
      <line x1="0" y1="0" x2="880" y2="0" stroke-width="3" stroke="red"></line>
      <line x1="0" y1="-1485" x2="880" y2="-1485" stroke-width="3" stroke="red"></line>
      <g>
         <text x="-20" y="-965" fill="blueviolet" text-anchor="end" font-size="20" font-family="comic sans Ms" stroke="blueviolet">Toy Knife Room</text>
         <line x1="0" x2="8" y1="-967.5" y2="-967.5" stroke="chocolate" stroke-width="10"></line>
         <text x="10" y="-967.5" font-size="20" font-family="papyrus" stroke="white">1</text>
      </g>
      <line x1="0" y1="0" x2="0" y2="-988" stroke-width="3" stroke="blue"></line>
      <line x1="0" y1="0" x2="880" y2="0" stroke-width="3" stroke="red"></line>
      <line x1="0" y1="-1485" x2="880" y2="-1485" stroke-width="3" stroke="red"></line>
      <g>
         <text x="-20" y="-1010" fill="blueviolet" text-anchor="end" font-size="20" font-family="comic sans Ms" stroke="blueviolet">Black Tree Room</text>
         <line x1="0" x2="40" y1="-1012.5" y2="-1012.5" stroke="chocolate" stroke-width="10"></line>
         <text x="42" y="-1012.5" font-size="20" font-family="papyrus" stroke="white">5</text>
      </g>
      <line x1="0" y1="0" x2="0" y2="-1033" stroke-width="3" stroke="blue"></line>
      <line x1="0" y1="0" x2="880" y2="0" stroke-width="3" stroke="red"></line>
      <line x1="0" y1="-1485" x2="880" y2="-1485" stroke-width="3" stroke="red"></line>
      <g>
         <text x="-20" y="-1055" fill="blueviolet" text-anchor="end" font-size="20" font-family="comic sans Ms" stroke="blueviolet">Entrance To Toriel's Home</text>
         <line x1="0" x2="56" y1="-1057.5" y2="-1057.5" stroke="chocolate" stroke-width="10"></line>
         <text x="58" y="-1057.5" font-size="20" font-family="papyrus" stroke="white">7</text>
      </g>
      <line x1="0" y1="0" x2="0" y2="-1078" stroke-width="3" stroke="blue"></line>
      <line x1="0" y1="0" x2="880" y2="0" stroke-width="3" stroke="red"></line>
      <line x1="0" y1="-1485" x2="880" y2="-1485" stroke-width="3" stroke="red"></line>
      <g>
         <text x="-20" y="-1100" fill="blueviolet" text-anchor="end" font-size="20" font-family="comic sans Ms" stroke="blueviolet">Toriel's Home</text>
         <line x1="0" x2="72" y1="-1102.5" y2="-1102.5" stroke="chocolate" stroke-width="10"></line>
         <text x="74" y="-1102.5" font-size="20" font-family="papyrus" stroke="white">9</text>
      </g>
      <line x1="0" y1="0" x2="0" y2="-1123" stroke-width="3" stroke="blue"></line>
      <line x1="0" y1="0" x2="880" y2="0" stroke-width="3" stroke="red"></line>
      <line x1="0" y1="-1485" x2="880" y2="-1485" stroke-width="3" stroke="red"></line>
      <g>
         <text x="-20" y="-1145" fill="blueviolet" text-anchor="end" font-size="20" font-family="comic sans Ms" stroke="blueviolet">Toriel's Living Room</text>
         <line x1="0" x2="64" y1="-1147.5" y2="-1147.5" stroke="chocolate" stroke-width="10"></line>
         <text x="66" y="-1147.5" font-size="20" font-family="papyrus" stroke="white">8</text>
      </g>
      <line x1="0" y1="0" x2="0" y2="-1168" stroke-width="3" stroke="blue"></line>
      <line x1="0" y1="0" x2="880" y2="0" stroke-width="3" stroke="red"></line>
      <line x1="0" y1="-1485" x2="880" y2="-1485" stroke-width="3" stroke="red"></line>
      <g>
         <text x="-20" y="-1190" fill="blueviolet" text-anchor="end" font-size="20" font-family="comic sans Ms" stroke="blueviolet">Kitchen</text>
         <line x1="0" x2="40" y1="-1192.5" y2="-1192.5" stroke="chocolate" stroke-width="10"></line>
         <text x="42" y="-1192.5" font-size="20" font-family="papyrus" stroke="white">5</text>
      </g>
      <line x1="0" y1="0" x2="0" y2="-1213" stroke-width="3" stroke="blue"></line>
      <line x1="0" y1="0" x2="880" y2="0" stroke-width="3" stroke="red"></line>
      <line x1="0" y1="-1485" x2="880" y2="-1485" stroke-width="3" stroke="red"></line>
      <g>
         <text x="-20" y="-1235" fill="blueviolet" text-anchor="end" font-size="20" font-family="comic sans Ms" stroke="blueviolet">Bedrooms</text>
         <line x1="0" x2="64" y1="-1237.5" y2="-1237.5" stroke="chocolate" stroke-width="10"></line>
         <text x="66" y="-1237.5" font-size="20" font-family="papyrus" stroke="white">8</text>
      </g>
      <line x1="0" y1="0" x2="0" y2="-1258" stroke-width="3" stroke="blue"></line>
      <line x1="0" y1="0" x2="880" y2="0" stroke-width="3" stroke="red"></line>
      <line x1="0" y1="-1485" x2="880" y2="-1485" stroke-width="3" stroke="red"></line>
      <g>
         <text x="-20" y="-1280" fill="blueviolet" text-anchor="end" font-size="20" font-family="comic sans Ms" stroke="blueviolet">Toriel's Room</text>
         <line x1="0" x2="120" y1="-1282.5" y2="-1282.5" stroke="chocolate" stroke-width="10"></line>
         <text x="122" y="-1282.5" font-size="20" font-family="papyrus" stroke="white">15</text>
      </g>
      <line x1="0" y1="0" x2="0" y2="-1303" stroke-width="3" stroke="blue"></line>
      <line x1="0" y1="0" x2="880" y2="0" stroke-width="3" stroke="red"></line>
      <line x1="0" y1="-1485" x2="880" y2="-1485" stroke-width="3" stroke="red"></line>
      <g>
         <text x="-20" y="-1325" fill="blueviolet" text-anchor="end" font-size="20" font-family="comic sans Ms" stroke="blueviolet">Asriel's Room</text>
         <line x1="0" x2="56" y1="-1327.5" y2="-1327.5" stroke="chocolate" stroke-width="10"></line>
         <text x="58" y="-1327.5" font-size="20" font-family="papyrus" stroke="white">7</text>
      </g>
      <line x1="0" y1="0" x2="0" y2="-1348" stroke-width="3" stroke="blue"></line>
      <line x1="0" y1="0" x2="880" y2="0" stroke-width="3" stroke="red"></line>
      <line x1="0" y1="-1485" x2="880" y2="-1485" stroke-width="3" stroke="red"></line>
      <g>
         <text x="-20" y="-1370" fill="blueviolet" text-anchor="end" font-size="20" font-family="comic sans Ms" stroke="blueviolet">Basement</text>
         <line x1="0" x2="224" y1="-1372.5" y2="-1372.5" stroke="chocolate" stroke-width="10"></line>
         <text x="226" y="-1372.5" font-size="20" font-family="papyrus" stroke="white">28</text>
      </g>
      <line x1="0" y1="0" x2="0" y2="-1393" stroke-width="3" stroke="blue"></line>
      <line x1="0" y1="0" x2="880" y2="0" stroke-width="3" stroke="red"></line>
      <line x1="0" y1="-1485" x2="880" y2="-1485" stroke-width="3" stroke="red"></line>
      <g>
         <text x="-20" y="-1415" fill="blueviolet" text-anchor="end" font-size="20" font-family="comic sans Ms" stroke="blueviolet">Toriel Boss Room</text>
         <line x1="0" x2="184" y1="-1417.5" y2="-1417.5" stroke="chocolate" stroke-width="10"></line>
         <text x="186" y="-1417.5" font-size="20" font-family="papyrus" stroke="white">23</text>
      </g>
      <line x1="0" y1="0" x2="0" y2="-1438" stroke-width="3" stroke="blue"></line>
      <line x1="0" y1="0" x2="880" y2="0" stroke-width="3" stroke="red"></line>
      <line x1="0" y1="-1485" x2="880" y2="-1485" stroke-width="3" stroke="red"></line>
      <g>
         <text x="-20" y="-1460" fill="blueviolet" text-anchor="end" font-size="20" font-family="comic sans Ms" stroke="blueviolet">Flowey Exit Hall</text>
         <line x1="0" x2="776" y1="-1462.5" y2="-1462.5" stroke="chocolate" stroke-width="10"></line>
         <text x="778" y="-1462.5" font-size="20" font-family="papyrus" stroke="white">97</text>
      </g>
      <line x1="0" y1="0" x2="0" y2="-1483" stroke-width="3" stroke="blue"></line>
      <line x1="0" y1="0" x2="880" y2="0" stroke-width="3" stroke="red"></line>
      <line x1="0" y1="-1485" x2="880" y2="-1485" stroke-width="3" stroke="red"></line>
   </g>
</svg>