<?xml version="1.0" encoding="UTF-8"?><svg xmlns="http://www.w3.org/2000/svg" width="2000" height="1900" style="background-color: black;">
   <g transform="translate(300, 1700), scale(.85)">
      <text x="0" y="20" font-size="20" font-family="papyrus" stroke="white">0</text>
      <text x="80" y="25" font-size="20" font-family="papyrus" stroke="white">10</text>
      <line x1="89" x2="89" y1="0" y2="-10" stroke-width="3" stroke="white"></line>
      <text x="160" y="25" font-size="20" font-family="papyrus" stroke="white">20</text>
      <line x1="169" x2="169" y1="0" y2="-10" stroke-width="3" stroke="white"></line>
      <text x="240" y="25" font-size="20" font-family="papyrus" stroke="white">30</text>
      <line x1="249" x2="249" y1="0" y2="-10" stroke-width="3" stroke="white"></line>
      <text x="320" y="25" font-size="20" font-family="papyrus" stroke="white">40</text>
      <line x1="329" x2="329" y1="0" y2="-10" stroke-width="3" stroke="white"></line>
      <text x="400" y="25" font-size="20" font-family="papyrus" stroke="white">50</text>
      <line x1="409" x2="409" y1="0" y2="-10" stroke-width="3" stroke="white"></line>
      <text x="480" y="25" font-size="20" font-family="papyrus" stroke="white">60</text>
      <line x1="489" x2="489" y1="0" y2="-10" stroke-width="3" stroke="white"></line>
      <text x="560" y="25" font-size="20" font-family="papyrus" stroke="white">70</text>
      <line x1="569" x2="569" y1="0" y2="-10" stroke-width="3" stroke="white"></line>
      <text x="640" y="25" font-size="20" font-family="papyrus" stroke="white">80</text>
      <line x1="649" x2="649" y1="0" y2="-10" stroke-width="3" stroke="white"></line>
      <text x="720" y="25" font-size="20" font-family="papyrus" stroke="white">90</text>
      <line x1="729" x2="729" y1="0" y2="-10" stroke-width="3" stroke="white"></line>
      <text x="800" y="25" font-size="20" font-family="papyrus" stroke="white">100</text>
      <line x1="809" x2="809" y1="0" y2="-10" stroke-width="3" stroke="white"></line>
      <text x="5" y="-1680" font-size="20" font-family="papyrus" stroke="white">0</text>
      <text x="80" y="-1680" font-size="20" font-family="papyrus" stroke="white">10</text>
      <line x1="89" x2="89" y1="-1665" y2="-1655" stroke-width="3" stroke="white"></line>
      <text x="160" y="-1680" font-size="20" font-family="papyrus" stroke="white">20</text>
      <line x1="169" x2="169" y1="-1665" y2="-1655" stroke-width="3" stroke="white"></line>
      <text x="240" y="-1680" font-size="20" font-family="papyrus" stroke="white">30</text>
      <line x1="249" x2="249" y1="-1665" y2="-1655" stroke-width="3" stroke="white"></line>
      <text x="320" y="-1680" font-size="20" font-family="papyrus" stroke="white">40</text>
      <line x1="329" x2="329" y1="-1665" y2="-1655" stroke-width="3" stroke="white"></line>
      <text x="400" y="-1680" font-size="20" font-family="papyrus" stroke="white">50</text>
      <line x1="409" x2="409" y1="-1665" y2="-1655" stroke-width="3" stroke="white"></line>
      <text x="480" y="-1680" font-size="20" font-family="papyrus" stroke="white">60</text>
      <line x1="489" x2="489" y1="-1665" y2="-1655" stroke-width="3" stroke="white"></line>
      <text x="560" y="-1680" font-size="20" font-family="papyrus" stroke="white">70</text>
      <line x1="569" x2="569" y1="-1665" y2="-1655" stroke-width="3" stroke="white"></line>
      <text x="640" y="-1680" font-size="20" font-family="papyrus" stroke="white">80</text>
      <line x1="649" x2="649" y1="-1665" y2="-1655" stroke-width="3" stroke="white"></line>
      <text x="720" y="-1680" font-size="20" font-family="papyrus" stroke="white">90</text>
      <line x1="729" x2="729" y1="-1665" y2="-1655" stroke-width="3" stroke="white"></line>
      <text x="800" y="-1680" font-size="20" font-family="papyrus" stroke="white">100</text>
      <line x1="809" x2="809" y1="-1665" y2="-1655" stroke-width="3" stroke="white"></line>
      <text x="200" y="-1765" stroke="white" font-size="30" font-family="papyrus">Available Dialogue Per
         Setting
      </text>
      <text x="355" y="-1725" stroke="white" font-size="25" font-family="papyrus">Snowdin</text>
      <g>
         <text x="-20" y="-20" fill="blueviolet" text-anchor="end" font-size="20" font-family="comic sans Ms" stroke="blueviolet">Outside Ruins Door</text>
         <line x1="0" x2="8" y1="-22.5" y2="-22.5" stroke="chocolate" stroke-width="10"></line>
         <text x="10" y="-22.5" font-size="20" font-family="papyrus" stroke="white">1</text>
      </g>
      <line x1="0" y1="0" x2="0" y2="-43" stroke-width="3" stroke="blue"></line>
      <line x1="0" y1="0" x2="880" y2="0" stroke-width="3" stroke="red"></line>
      <line x1="0" y1="-1665" x2="880" y2="-1665" stroke-width="3" stroke="red"></line>
      <g>
         <text x="-20" y="-65" fill="blueviolet" text-anchor="end" font-size="20" font-family="comic sans Ms" stroke="blueviolet">Sans Hallway</text>
         <line x1="0" x2="16" y1="-67.5" y2="-67.5" stroke="chocolate" stroke-width="10"></line>
         <text x="18" y="-67.5" font-size="20" font-family="papyrus" stroke="white">2</text>
      </g>
      <line x1="0" y1="0" x2="0" y2="-88" stroke-width="3" stroke="blue"></line>
      <line x1="0" y1="0" x2="880" y2="0" stroke-width="3" stroke="red"></line>
      <line x1="0" y1="-1665" x2="880" y2="-1665" stroke-width="3" stroke="red"></line>
      <g>
         <text x="-20" y="-110" fill="blueviolet" text-anchor="end" font-size="20" font-family="comic sans Ms" stroke="blueviolet">Meeting Sans</text>
         <line x1="0" x2="184" y1="-112.5" y2="-112.5" stroke="chocolate" stroke-width="10"></line>
         <text x="186" y="-112.5" font-size="20" font-family="papyrus" stroke="white">23</text>
      </g>
      <line x1="0" y1="0" x2="0" y2="-133" stroke-width="3" stroke="blue"></line>
      <line x1="0" y1="0" x2="880" y2="0" stroke-width="3" stroke="red"></line>
      <line x1="0" y1="-1665" x2="880" y2="-1665" stroke-width="3" stroke="red"></line>
      <g>
         <text x="-20" y="-155" fill="blueviolet" text-anchor="end" font-size="20" font-family="comic sans Ms" stroke="blueviolet">Meeting Papyrus</text>
         <line x1="0" x2="336" y1="-157.5" y2="-157.5" stroke="chocolate" stroke-width="10"></line>
         <text x="338" y="-157.5" font-size="20" font-family="papyrus" stroke="white">42</text>
      </g>
      <line x1="0" y1="0" x2="0" y2="-178" stroke-width="3" stroke="blue"></line>
      <line x1="0" y1="0" x2="880" y2="0" stroke-width="3" stroke="red"></line>
      <line x1="0" y1="-1665" x2="880" y2="-1665" stroke-width="3" stroke="red"></line>
      <g>
         <text x="-20" y="-200" fill="blueviolet" text-anchor="end" font-size="20" font-family="comic sans Ms" stroke="blueviolet">After Papyrus</text>
         <line x1="0" x2="112" y1="-202.5" y2="-202.5" stroke="chocolate" stroke-width="10"></line>
         <text x="114" y="-202.5" font-size="20" font-family="papyrus" stroke="white">14</text>
      </g>
      <line x1="0" y1="0" x2="0" y2="-223" stroke-width="3" stroke="blue"></line>
      <line x1="0" y1="0" x2="880" y2="0" stroke-width="3" stroke="red"></line>
      <line x1="0" y1="-1665" x2="880" y2="-1665" stroke-width="3" stroke="red"></line>
      <g>
         <text x="-20" y="-245" fill="blueviolet" text-anchor="end" font-size="20" font-family="comic sans Ms" stroke="blueviolet">Save Point</text>
         <line x1="0" x2="56" y1="-247.5" y2="-247.5" stroke="chocolate" stroke-width="10"></line>
         <text x="58" y="-247.5" font-size="20" font-family="papyrus" stroke="white">7</text>
      </g>
      <line x1="0" y1="0" x2="0" y2="-268" stroke-width="3" stroke="blue"></line>
      <line x1="0" y1="0" x2="880" y2="0" stroke-width="3" stroke="red"></line>
      <line x1="0" y1="-1665" x2="880" y2="-1665" stroke-width="3" stroke="red"></line>
      <g>
         <text x="-20" y="-290" fill="blueviolet" text-anchor="end" font-size="20" font-family="comic sans Ms" stroke="blueviolet">Fishing Pole Room</text>
         <line x1="0" x2="56" y1="-292.5" y2="-292.5" stroke="chocolate" stroke-width="10"></line>
         <text x="58" y="-292.5" font-size="20" font-family="papyrus" stroke="white">7</text>
      </g>
      <line x1="0" y1="0" x2="0" y2="-313" stroke-width="3" stroke="blue"></line>
      <line x1="0" y1="0" x2="880" y2="0" stroke-width="3" stroke="red"></line>
      <line x1="0" y1="-1665" x2="880" y2="-1665" stroke-width="3" stroke="red"></line>
      <g>
         <text x="-20" y="-335" fill="blueviolet" text-anchor="end" font-size="20" font-family="comic sans Ms" stroke="blueviolet">Sans And Papyrus</text>
         <line x1="0" x2="192" y1="-337.5" y2="-337.5" stroke="chocolate" stroke-width="10"></line>
         <text x="194" y="-337.5" font-size="20" font-family="papyrus" stroke="white">24</text>
      </g>
      <line x1="0" y1="0" x2="0" y2="-358" stroke-width="3" stroke="blue"></line>
      <line x1="0" y1="0" x2="880" y2="0" stroke-width="3" stroke="red"></line>
      <line x1="0" y1="-1665" x2="880" y2="-1665" stroke-width="3" stroke="red"></line>
      <g>
         <text x="-20" y="-380" fill="blueviolet" text-anchor="end" font-size="20" font-family="comic sans Ms" stroke="blueviolet">Papyrus Station</text>
         <line x1="0" x2="40" y1="-382.5" y2="-382.5" stroke="chocolate" stroke-width="10"></line>
         <text x="42" y="-382.5" font-size="20" font-family="papyrus" stroke="white">5</text>
      </g>
      <line x1="0" y1="0" x2="0" y2="-403" stroke-width="3" stroke="blue"></line>
      <line x1="0" y1="0" x2="880" y2="0" stroke-width="3" stroke="red"></line>
      <line x1="0" y1="-1665" x2="880" y2="-1665" stroke-width="3" stroke="red"></line>
      <g>
         <text x="-20" y="-425" fill="blueviolet" text-anchor="end" font-size="20" font-family="comic sans Ms" stroke="blueviolet">Doggo Station</text>
         <line x1="0" x2="160" y1="-427.5" y2="-427.5" stroke="chocolate" stroke-width="10"></line>
         <text x="162" y="-427.5" font-size="20" font-family="papyrus" stroke="white">20</text>
      </g>
      <line x1="0" y1="0" x2="0" y2="-448" stroke-width="3" stroke="blue"></line>
      <line x1="0" y1="0" x2="880" y2="0" stroke-width="3" stroke="red"></line>
      <line x1="0" y1="-1665" x2="880" y2="-1665" stroke-width="3" stroke="red"></line>
      <g>
         <text x="-20" y="-470" fill="blueviolet" text-anchor="end" font-size="20" font-family="comic sans Ms" stroke="blueviolet">Slippery Ice Room</text>
         <line x1="0" x2="88" y1="-472.5" y2="-472.5" stroke="chocolate" stroke-width="10"></line>
         <text x="90" y="-472.5" font-size="20" font-family="papyrus" stroke="white">11</text>
      </g>
      <line x1="0" y1="0" x2="0" y2="-493" stroke-width="3" stroke="blue"></line>
      <line x1="0" y1="0" x2="880" y2="0" stroke-width="3" stroke="red"></line>
      <line x1="0" y1="-1665" x2="880" y2="-1665" stroke-width="3" stroke="red"></line>
      <g>
         <text x="-20" y="-515" fill="blueviolet" text-anchor="end" font-size="20" font-family="comic sans Ms" stroke="blueviolet">Snowman Room</text>
         <line x1="0" x2="184" y1="-517.5" y2="-517.5" stroke="chocolate" stroke-width="10"></line>
         <text x="186" y="-517.5" font-size="20" font-family="papyrus" stroke="white">23</text>
      </g>
      <line x1="0" y1="0" x2="0" y2="-538" stroke-width="3" stroke="blue"></line>
      <line x1="0" y1="0" x2="880" y2="0" stroke-width="3" stroke="red"></line>
      <line x1="0" y1="-1665" x2="880" y2="-1665" stroke-width="3" stroke="red"></line>
      <g>
         <text x="-20" y="-560" fill="blueviolet" text-anchor="end" font-size="20" font-family="comic sans Ms" stroke="blueviolet">Electric Maze Room</text>
         <line x1="0" x2="384" y1="-562.5" y2="-562.5" stroke="chocolate" stroke-width="10"></line>
         <text x="386" y="-562.5" font-size="20" font-family="papyrus" stroke="white">48</text>
      </g>
      <line x1="0" y1="0" x2="0" y2="-583" stroke-width="3" stroke="blue"></line>
      <line x1="0" y1="0" x2="880" y2="0" stroke-width="3" stroke="red"></line>
      <line x1="0" y1="-1665" x2="880" y2="-1665" stroke-width="3" stroke="red"></line>
      <g>
         <text x="-20" y="-605" fill="blueviolet" text-anchor="end" font-size="20" font-family="comic sans Ms" stroke="blueviolet">Ball Game Room</text>
         <line x1="0" x2="480" y1="-607.5" y2="-607.5" stroke="chocolate" stroke-width="10"></line>
         <text x="482" y="-607.5" font-size="20" font-family="papyrus" stroke="white">60</text>
      </g>
      <line x1="0" y1="0" x2="0" y2="-628" stroke-width="3" stroke="blue"></line>
      <line x1="0" y1="0" x2="880" y2="0" stroke-width="3" stroke="red"></line>
      <line x1="0" y1="-1665" x2="880" y2="-1665" stroke-width="3" stroke="red"></line>
      <g>
         <text x="-20" y="-650" fill="blueviolet" text-anchor="end" font-size="20" font-family="comic sans Ms" stroke="blueviolet">Dogi Station</text>
         <line x1="0" x2="48" y1="-652.5" y2="-652.5" stroke="chocolate" stroke-width="10"></line>
         <text x="50" y="-652.5" font-size="20" font-family="papyrus" stroke="white">6</text>
      </g>
      <line x1="0" y1="0" x2="0" y2="-673" stroke-width="3" stroke="blue"></line>
      <line x1="0" y1="0" x2="880" y2="0" stroke-width="3" stroke="red"></line>
      <line x1="0" y1="-1665" x2="880" y2="-1665" stroke-width="3" stroke="red"></line>
      <g>
         <text x="-20" y="-695" fill="blueviolet" text-anchor="end" font-size="20" font-family="comic sans Ms" stroke="blueviolet">Crossword Room</text>
         <line x1="0" x2="280" y1="-697.5" y2="-697.5" stroke="chocolate" stroke-width="10"></line>
         <text x="282" y="-697.5" font-size="20" font-family="papyrus" stroke="white">35</text>
      </g>
      <line x1="0" y1="0" x2="0" y2="-718" stroke-width="3" stroke="blue"></line>
      <line x1="0" y1="0" x2="880" y2="0" stroke-width="3" stroke="red"></line>
      <line x1="0" y1="-1665" x2="880" y2="-1665" stroke-width="3" stroke="red"></line>
      <g>
         <text x="-20" y="-740" fill="blueviolet" text-anchor="end" font-size="20" font-family="comic sans Ms" stroke="blueviolet">Spaghetti Room</text>
         <line x1="0" x2="120" y1="-742.5" y2="-742.5" stroke="chocolate" stroke-width="10"></line>
         <text x="122" y="-742.5" font-size="20" font-family="papyrus" stroke="white">15</text>
      </g>
      <line x1="0" y1="0" x2="0" y2="-763" stroke-width="3" stroke="blue"></line>
      <line x1="0" y1="0" x2="880" y2="0" stroke-width="3" stroke="red"></line>
      <line x1="0" y1="-1665" x2="880" y2="-1665" stroke-width="3" stroke="red"></line>
      <g>
         <text x="-20" y="-785" fill="blueviolet" text-anchor="end" font-size="20" font-family="comic sans Ms" stroke="blueviolet">Dogi Arena</text>
         <line x1="0" x2="112" y1="-787.5" y2="-787.5" stroke="chocolate" stroke-width="10"></line>
         <text x="114" y="-787.5" font-size="20" font-family="papyrus" stroke="white">14</text>
      </g>
      <line x1="0" y1="0" x2="0" y2="-808" stroke-width="3" stroke="blue"></line>
      <line x1="0" y1="0" x2="880" y2="0" stroke-width="3" stroke="red"></line>
      <line x1="0" y1="-1665" x2="880" y2="-1665" stroke-width="3" stroke="red"></line>
      <g>
         <text x="-20" y="-830" fill="blueviolet" text-anchor="end" font-size="20" font-family="comic sans Ms" stroke="blueviolet">1st XO Puzzle</text>
         <line x1="0" x2="152" y1="-832.5" y2="-832.5" stroke="chocolate" stroke-width="10"></line>
         <text x="154" y="-832.5" font-size="20" font-family="papyrus" stroke="white">19</text>
      </g>
      <line x1="0" y1="0" x2="0" y2="-853" stroke-width="3" stroke="blue"></line>
      <line x1="0" y1="0" x2="880" y2="0" stroke-width="3" stroke="red"></line>
      <line x1="0" y1="-1665" x2="880" y2="-1665" stroke-width="3" stroke="red"></line>
      <g>
         <text x="-20" y="-875" fill="blueviolet" text-anchor="end" font-size="20" font-family="comic sans Ms" stroke="blueviolet">2nd XO Puzzle</text>
         <line x1="0" x2="440" y1="-877.5" y2="-877.5" stroke="chocolate" stroke-width="10"></line>
         <text x="442" y="-877.5" font-size="20" font-family="papyrus" stroke="white">55</text>
      </g>
      <line x1="0" y1="0" x2="0" y2="-898" stroke-width="3" stroke="blue"></line>
      <line x1="0" y1="0" x2="880" y2="0" stroke-width="3" stroke="red"></line>
      <line x1="0" y1="-1665" x2="880" y2="-1665" stroke-width="3" stroke="red"></line>
      <g>
         <text x="-20" y="-920" fill="blueviolet" text-anchor="end" font-size="20" font-family="comic sans Ms" stroke="blueviolet">Colored Tile Puzzle</text>
         <line x1="0" x2="624" y1="-922.5" y2="-922.5" stroke="chocolate" stroke-width="10"></line>
         <text x="626" y="-922.5" font-size="20" font-family="papyrus" stroke="white">78</text>
      </g>
      <line x1="0" y1="0" x2="0" y2="-943" stroke-width="3" stroke="blue"></line>
      <line x1="0" y1="0" x2="880" y2="0" stroke-width="3" stroke="red"></line>
      <line x1="0" y1="-1665" x2="880" y2="-1665" stroke-width="3" stroke="red"></line>
      <g>
         <text x="-20" y="-965" fill="blueviolet" text-anchor="end" font-size="20" font-family="comic sans Ms" stroke="blueviolet">Lesser Dog Station</text>
         <line x1="0" x2="264" y1="-967.5" y2="-967.5" stroke="chocolate" stroke-width="10"></line>
         <text x="266" y="-967.5" font-size="20" font-family="papyrus" stroke="white">33</text>
      </g>
      <line x1="0" y1="0" x2="0" y2="-988" stroke-width="3" stroke="blue"></line>
      <line x1="0" y1="0" x2="880" y2="0" stroke-width="3" stroke="red"></line>
      <line x1="0" y1="-1665" x2="880" y2="-1665" stroke-width="3" stroke="red"></line>
      <g>
         <text x="-20" y="-1010" fill="blueviolet" text-anchor="end" font-size="20" font-family="comic sans Ms" stroke="blueviolet">Papyrus And Sans Snowmen</text>
         <line x1="0" x2="16" y1="-1012.5" y2="-1012.5" stroke="chocolate" stroke-width="10"></line>
         <text x="18" y="-1012.5" font-size="20" font-family="papyrus" stroke="white">2</text>
      </g>
      <line x1="0" y1="0" x2="0" y2="-1033" stroke-width="3" stroke="blue"></line>
      <line x1="0" y1="0" x2="880" y2="0" stroke-width="3" stroke="red"></line>
      <line x1="0" y1="-1665" x2="880" y2="-1665" stroke-width="3" stroke="red"></line>
      <g>
         <text x="-20" y="-1055" fill="blueviolet" text-anchor="end" font-size="20" font-family="comic sans Ms" stroke="blueviolet">Gyftrot Room</text>
         <line x1="0" x2="40" y1="-1057.5" y2="-1057.5" stroke="chocolate" stroke-width="10"></line>
         <text x="42" y="-1057.5" font-size="20" font-family="papyrus" stroke="white">5</text>
      </g>
      <line x1="0" y1="0" x2="0" y2="-1078" stroke-width="3" stroke="blue"></line>
      <line x1="0" y1="0" x2="880" y2="0" stroke-width="3" stroke="red"></line>
      <line x1="0" y1="-1665" x2="880" y2="-1665" stroke-width="3" stroke="red"></line>
      <g>
         <text x="-20" y="-1100" fill="blueviolet" text-anchor="end" font-size="20" font-family="comic sans Ms" stroke="blueviolet">Mysterious Door Room</text>
         <line x1="0" x2="24" y1="-1102.5" y2="-1102.5" stroke="chocolate" stroke-width="10"></line>
         <text x="26" y="-1102.5" font-size="20" font-family="papyrus" stroke="white">3</text>
      </g>
      <line x1="0" y1="0" x2="0" y2="-1123" stroke-width="3" stroke="blue"></line>
      <line x1="0" y1="0" x2="880" y2="0" stroke-width="3" stroke="red"></line>
      <line x1="0" y1="-1665" x2="880" y2="-1665" stroke-width="3" stroke="red"></line>
      <g>
         <text x="-20" y="-1145" fill="blueviolet" text-anchor="end" font-size="20" font-family="comic sans Ms" stroke="blueviolet">Developer's Room</text>
         <line x1="0" x2="192" y1="-1147.5" y2="-1147.5" stroke="chocolate" stroke-width="10"></line>
         <text x="194" y="-1147.5" font-size="20" font-family="papyrus" stroke="white">24</text>
      </g>
      <line x1="0" y1="0" x2="0" y2="-1168" stroke-width="3" stroke="blue"></line>
      <line x1="0" y1="0" x2="880" y2="0" stroke-width="3" stroke="red"></line>
      <line x1="0" y1="-1665" x2="880" y2="-1665" stroke-width="3" stroke="red"></line>
      <g>
         <text x="-20" y="-1190" fill="blueviolet" text-anchor="end" font-size="20" font-family="comic sans Ms" stroke="blueviolet">Greater Dog Station</text>
         <line x1="0" x2="96" y1="-1192.5" y2="-1192.5" stroke="chocolate" stroke-width="10"></line>
         <text x="98" y="-1192.5" font-size="20" font-family="papyrus" stroke="white">12</text>
      </g>
      <line x1="0" y1="0" x2="0" y2="-1213" stroke-width="3" stroke="blue"></line>
      <line x1="0" y1="0" x2="880" y2="0" stroke-width="3" stroke="red"></line>
      <line x1="0" y1="-1665" x2="880" y2="-1665" stroke-width="3" stroke="red"></line>
      <g>
         <text x="-20" y="-1235" fill="blueviolet" text-anchor="end" font-size="20" font-family="comic sans Ms" stroke="blueviolet">Gauntlet Of Deadly Terror</text>
         <line x1="0" x2="320" y1="-1237.5" y2="-1237.5" stroke="chocolate" stroke-width="10"></line>
         <text x="322" y="-1237.5" font-size="20" font-family="papyrus" stroke="white">40</text>
      </g>
      <line x1="0" y1="0" x2="0" y2="-1258" stroke-width="3" stroke="blue"></line>
      <line x1="0" y1="0" x2="880" y2="0" stroke-width="3" stroke="red"></line>
      <line x1="0" y1="-1665" x2="880" y2="-1665" stroke-width="3" stroke="red"></line>
      <g>
         <text x="-20" y="-1280" fill="blueviolet" text-anchor="end" font-size="20" font-family="comic sans Ms" stroke="blueviolet">Rock Family</text>
         <line x1="0" x2="88" y1="-1282.5" y2="-1282.5" stroke="chocolate" stroke-width="10"></line>
         <text x="90" y="-1282.5" font-size="20" font-family="papyrus" stroke="white">11</text>
      </g>
      <line x1="0" y1="0" x2="0" y2="-1303" stroke-width="3" stroke="blue"></line>
      <line x1="0" y1="0" x2="880" y2="0" stroke-width="3" stroke="red"></line>
      <line x1="0" y1="-1665" x2="880" y2="-1665" stroke-width="3" stroke="red"></line>
      <g>
         <text x="-20" y="-1325" fill="blueviolet" text-anchor="end" font-size="20" font-family="comic sans Ms" stroke="blueviolet">Snowdin Town</text>
         <line x1="0" x2="856" y1="-1327.5" y2="-1327.5" stroke="chocolate" stroke-width="10"></line>
         <text x="858" y="-1327.5" font-size="20" font-family="papyrus" stroke="white">107</text>
      </g>
      <line x1="0" y1="0" x2="0" y2="-1348" stroke-width="3" stroke="blue"></line>
      <line x1="0" y1="0" x2="880" y2="0" stroke-width="3" stroke="red"></line>
      <line x1="0" y1="-1665" x2="880" y2="-1665" stroke-width="3" stroke="red"></line>
      <g>
         <text x="-20" y="-1370" fill="blueviolet" text-anchor="end" font-size="20" font-family="comic sans Ms" stroke="blueviolet">Snowdin Shop</text>
         <line x1="0" x2="232" y1="-1372.5" y2="-1372.5" stroke="chocolate" stroke-width="10"></line>
         <text x="234" y="-1372.5" font-size="20" font-family="papyrus" stroke="white">29</text>
      </g>
      <line x1="0" y1="0" x2="0" y2="-1393" stroke-width="3" stroke="blue"></line>
      <line x1="0" y1="0" x2="880" y2="0" stroke-width="3" stroke="red"></line>
      <line x1="0" y1="-1665" x2="880" y2="-1665" stroke-width="3" stroke="red"></line>
      <g>
         <text x="-20" y="-1415" fill="blueviolet" text-anchor="end" font-size="20" font-family="comic sans Ms" stroke="blueviolet">Snowed Inn</text>
         <line x1="0" x2="144" y1="-1417.5" y2="-1417.5" stroke="chocolate" stroke-width="10"></line>
         <text x="146" y="-1417.5" font-size="20" font-family="papyrus" stroke="white">18</text>
      </g>
      <line x1="0" y1="0" x2="0" y2="-1438" stroke-width="3" stroke="blue"></line>
      <line x1="0" y1="0" x2="880" y2="0" stroke-width="3" stroke="red"></line>
      <line x1="0" y1="-1665" x2="880" y2="-1665" stroke-width="3" stroke="red"></line>
      <g>
         <text x="-20" y="-1460" fill="blueviolet" text-anchor="end" font-size="20" font-family="comic sans Ms" stroke="blueviolet">Grillby's</text>
         <line x1="0" x2="272" y1="-1462.5" y2="-1462.5" stroke="chocolate" stroke-width="10"></line>
         <text x="274" y="-1462.5" font-size="20" font-family="papyrus" stroke="white">34</text>
      </g>
      <line x1="0" y1="0" x2="0" y2="-1483" stroke-width="3" stroke="blue"></line>
      <line x1="0" y1="0" x2="880" y2="0" stroke-width="3" stroke="red"></line>
      <line x1="0" y1="-1665" x2="880" y2="-1665" stroke-width="3" stroke="red"></line>
      <g>
         <text x="-20" y="-1505" fill="blueviolet" text-anchor="end" font-size="20" font-family="comic sans Ms" stroke="blueviolet">Librarby</text>
         <line x1="0" x2="392" y1="-1507.5" y2="-1507.5" stroke="chocolate" stroke-width="10"></line>
         <text x="394" y="-1507.5" font-size="20" font-family="papyrus" stroke="white">49</text>
      </g>
      <line x1="0" y1="0" x2="0" y2="-1528" stroke-width="3" stroke="blue"></line>
      <line x1="0" y1="0" x2="880" y2="0" stroke-width="3" stroke="red"></line>
      <line x1="0" y1="-1665" x2="880" y2="-1665" stroke-width="3" stroke="red"></line>
      <g>
         <text x="-20" y="-1550" fill="blueviolet" text-anchor="end" font-size="20" font-family="comic sans Ms" stroke="blueviolet">Papyrus And Sans's House</text>
         <line x1="0" x2="312" y1="-1552.5" y2="-1552.5" stroke="chocolate" stroke-width="10"></line>
         <text x="314" y="-1552.5" font-size="20" font-family="papyrus" stroke="white">39</text>
      </g>
      <line x1="0" y1="0" x2="0" y2="-1573" stroke-width="3" stroke="blue"></line>
      <line x1="0" y1="0" x2="880" y2="0" stroke-width="3" stroke="red"></line>
      <line x1="0" y1="-1665" x2="880" y2="-1665" stroke-width="3" stroke="red"></line>
      <g>
         <text x="-20" y="-1595" fill="blueviolet" text-anchor="end" font-size="20" font-family="comic sans Ms" stroke="blueviolet">Papyrus's Room</text>
         <line x1="0" x2="72" y1="-1597.5" y2="-1597.5" stroke="chocolate" stroke-width="10"></line>
         <text x="74" y="-1597.5" font-size="20" font-family="papyrus" stroke="white">9</text>
      </g>
      <line x1="0" y1="0" x2="0" y2="-1618" stroke-width="3" stroke="blue"></line>
      <line x1="0" y1="0" x2="880" y2="0" stroke-width="3" stroke="red"></line>
      <line x1="0" y1="-1665" x2="880" y2="-1665" stroke-width="3" stroke="red"></line>
      <g>
         <text x="-20" y="-1640" fill="blueviolet" text-anchor="end" font-size="20" font-family="comic sans Ms" stroke="blueviolet">Papyrus Arena</text>
         <line x1="0" x2="552" y1="-1642.5" y2="-1642.5" stroke="chocolate" stroke-width="10"></line>
         <text x="554" y="-1642.5" font-size="20" font-family="papyrus" stroke="white">69</text>
      </g>
      <line x1="0" y1="0" x2="0" y2="-1663" stroke-width="3" stroke="blue"></line>
      <line x1="0" y1="0" x2="880" y2="0" stroke-width="3" stroke="red"></line>
      <line x1="0" y1="-1665" x2="880" y2="-1665" stroke-width="3" stroke="red"></line>
   </g>
</svg>